<?xml version="1.0" encoding="UTF-8" standalone="no"?>
<!-- Created with Inkscape (http://www.inkscape.org/) -->

<svg
   xmlns:dc="http://purl.org/dc/elements/1.1/"
   xmlns:cc="http://creativecommons.org/ns#"
   xmlns:rdf="http://www.w3.org/1999/02/22-rdf-syntax-ns#"
   xmlns:svg="http://www.w3.org/2000/svg"
   xmlns="http://www.w3.org/2000/svg"
   version="1.1"
   width="512"
   height="512"
   id="svg2"
   xml:space="preserve"><metadata
     id="metadata8"><rdf:RDF><cc:Work
         rdf:about=""><dc:format>image/svg+xml</dc:format><dc:type
           rdf:resource="http://purl.org/dc/dcmitype/StillImage" /><dc:title></dc:title></cc:Work></rdf:RDF></metadata><defs
     id="defs6"><clipPath
       id="clipPath18"><path
         d="m 0,1190.55 841.89,0 L 841.89,0 0,0 0,1190.55 z"
         id="path20" /></clipPath></defs><g
     transform="matrix(1.25,0,0,-1.25,0,512)"
     id="g10"><g
       transform="translate(-488.26877,376.97493)"
       id="g38"><path
         d="m 0,0 c -2.554,-2.563 -6.216,-3.863 -10.885,-3.863 -2.178,0 -4.412,-0.006 -6.664,-0.012 -2.288,-0.007 -4.594,-0.013 -6.88,-0.013 -4.279,0 -9.821,0.019 -14.741,0.17 -12.062,0.371 -12.09,10.274 -12.085,10.709 l 0,30.513 13.584,0 0,-4.078 -7.009,-9.64 c -0.124,-0.171 -0.191,-0.377 -0.191,-0.588 l 0,-17.557 c 0,-0.553 0.448,-1 1,-1 l 14.405,0 c 0.552,0 1,0.447 1,1 l 0,17.557 c 0,0.211 -0.067,0.417 -0.192,0.588 l -7.013,9.641 0,4.077 38.989,0 C 3.313,33.011 3.294,14.652 3.319,7.888 3.329,5.045 2.088,2.096 0,0 m -39.796,-11.435 c 0.329,3.01 2.091,5.546 4.008,5.546 l 23.641,0 c 1.916,0 3.679,-2.536 4.007,-5.546 l -31.656,0 z m 3.126,42.836 6.204,-8.528 0,-16.232 -12.405,0 0,16.232 6.201,8.528 z m 41.989,7.102 c 0,0.266 -0.105,0.519 -0.293,0.708 -0.187,0.187 -0.442,0.293 -0.707,0.293 l -56.574,0 c -0.552,0 -1,-0.447 -1,-1 l 0,-31.496 c -0.002,-0.122 -0.034,-12.149 13.791,-12.712 -1.439,-1.579 -2.387,-4.029 -2.387,-6.731 0,-0.552 0.448,-1 1,-1 l 33.766,0 c 0.006,0.001 0.012,0 0.02,0 0.552,0 1,0.448 1,1 0,0.072 -0.008,0.142 -0.022,0.209 -0.047,2.606 -0.973,4.961 -2.362,6.5 4.053,0.416 7.438,1.877 9.866,4.314 2.456,2.465 3.914,5.944 3.902,9.308 -0.028,7.689 -0.001,30.378 0,30.607"
         id="path40"
         style="fill:#62544d;fill-opacity:1;fill-rule:nonzero;stroke:none" /></g><g
       transform="translate(-523.23117,426.49543)"
       id="g42"><path
         d="m 0,0 c -0.179,-0.726 -1.125,-1.895 -4.621,-3.341 -0.51,-0.211 -0.753,-0.796 -0.541,-1.306 0.159,-0.385 0.532,-0.618 0.924,-0.618 0.128,0 0.257,0.025 0.382,0.077 3.523,1.458 5.365,2.954 5.798,4.709 0.51,2.066 -0.965,3.835 -2.526,5.709 -2.658,3.189 -4.953,5.943 0.161,10.466 0.413,0.366 0.452,0.998 0.086,1.411 -0.366,0.414 -0.997,0.453 -1.412,0.087 C -8.316,11.384 -4.588,6.91 -2.121,3.95 -0.893,2.476 0.268,1.083 0,0"
         id="path44"
         style="fill:#62544d;fill-opacity:1;fill-rule:nonzero;stroke:none" /></g><g
       transform="translate(-496.97377,426.49443)"
       id="g46"><path
         d="m 0,0 c -0.179,-0.726 -1.125,-1.894 -4.62,-3.34 -0.51,-0.211 -0.753,-0.796 -0.542,-1.306 0.16,-0.385 0.532,-0.618 0.925,-0.618 0.127,0 0.257,0.025 0.382,0.077 3.522,1.458 5.364,2.954 5.797,4.708 0.509,2.066 -0.965,3.836 -2.527,5.709 -2.658,3.19 -4.953,5.944 0.161,10.467 0.414,0.366 0.452,0.998 0.087,1.411 -0.366,0.414 -0.997,0.453 -1.412,0.087 C -8.317,11.385 -4.589,6.911 -2.122,3.95 -0.893,2.477 0.267,1.084 0,0"
         id="path48"
         style="fill:#62544d;fill-opacity:1;fill-rule:nonzero;stroke:none" /></g><g
       transform="translate(-515.25117,423.19463)"
       id="g50"><path
         d="m 0,0 c -0.532,-0.147 -0.844,-0.698 -0.697,-1.23 0.123,-0.444 0.525,-0.734 0.964,-0.734 0.088,0 0.178,0.012 0.267,0.036 3.99,1.106 6.362,2.687 7.252,4.834 C 9.059,5.981 7.105,9.434 5.037,13.089 2.125,18.233 -0.625,23.093 4.298,27.447 4.711,27.813 4.75,28.445 4.384,28.858 4.018,29.272 3.387,29.312 2.973,28.945 -3.163,23.518 0.418,17.188 3.296,12.104 5.118,8.885 6.838,5.846 5.937,3.672 5.308,2.152 3.311,0.917 0,0"
         id="path52"
         style="fill:#62544d;fill-opacity:1;fill-rule:nonzero;stroke:none" /></g><g
       transform="translate(-510.75407,524.27763)"
       id="g74"><path
         d="m 0,0 c -12.514,0 -22.694,10.181 -22.694,22.693 0,12.513 10.18,22.694 22.694,22.694 12.514,0 22.694,-10.181 22.694,-22.694 C 22.694,10.181 12.514,0 0,0 M 0,47.387 C -13.616,47.387 -24.694,36.31 -24.694,22.693 -24.694,9.077 -13.616,-2 0,-2 13.617,-2 24.694,9.077 24.694,22.693 24.694,36.31 13.617,47.387 0,47.387"
         id="path76"
         style="fill:#62544d;fill-opacity:1;fill-rule:nonzero;stroke:none" /></g><g
       transform="translate(-510.75407,512.43003)"
       id="g78"><path
         d="m 0,0 c -4.717,0 -9.293,0.944 -13.608,2.798 l -20.204,24.043 c 0.689,2.015 0.395,4.61 -0.717,7.228 l -0.002,0.065 c -0.004,0.136 -0.009,0.27 -0.009,0.407 0,19.045 15.495,34.539 34.54,34.539 19.045,0 34.54,-15.494 34.54,-34.539 C 34.54,15.495 19.045,0 0,0 m -7.107,-9.01 c -0.061,-0.526 -0.323,-0.998 -0.739,-1.328 -0.834,-0.663 -2.141,-0.494 -2.771,0.298 l -26.341,35.078 c -0.191,0.255 -0.489,0.399 -0.799,0.399 -0.071,0 -0.142,-0.007 -0.213,-0.022 -0.275,-0.061 -0.571,-0.091 -0.881,-0.091 -2.557,0 -5.764,1.959 -8.172,4.99 -1.746,2.197 -3.288,5.238 -4.023,7.936 -0.722,2.65 -0.607,4.666 0.307,5.393 0.309,0.246 0.746,0.37 1.298,0.37 0.179,0 0.366,-0.013 0.561,-0.037 0.388,-0.049 0.806,-0.146 1.244,-0.285 0.658,-0.208 1.364,-0.511 2.089,-0.893 2.419,-1.273 5.066,-3.415 6.951,-5.787 0.006,-0.007 0.011,-0.015 0.017,-0.023 0.275,-0.347 0.524,-0.704 0.766,-1.062 0.114,-0.172 0.229,-0.345 0.336,-0.521 0.078,-0.124 0.146,-0.249 0.219,-0.374 0.301,-0.521 0.579,-1.055 0.82,-1.608 0.006,-0.016 0.019,-0.026 0.026,-0.04 1.039,-2.389 1.294,-4.713 0.544,-6.298 -0.167,-0.354 -0.113,-0.772 0.139,-1.071 L -14.981,1.323 c 0,0 0,-10e-4 10e-4,-10e-4 l 7.455,-8.871 c 0.33,-0.415 0.478,-0.933 0.418,-1.461 M 0,71.08 c -19.169,0 -34.938,-14.837 -36.425,-33.631 -0.194,0.275 -0.396,0.543 -0.605,0.806 -2.965,3.731 -8.553,7.758 -12.411,7.758 -1.015,0 -1.87,-0.271 -2.542,-0.804 -0.201,-0.16 -0.383,-0.341 -0.544,-0.543 -0.646,-0.808 -0.977,-1.944 -0.983,-3.351 -0.006,-1.054 0.172,-2.26 0.534,-3.591 0.611,-2.241 1.686,-4.62 3.001,-6.697 0.438,-0.691 0.903,-1.349 1.386,-1.957 3.01,-3.79 7.094,-6.046 10.392,-5.713 L -12.2,-11.264 c 0.762,-0.956 1.9,-1.505 3.122,-1.505 l 10e-4,0 c 0.671,0 1.333,0.173 1.918,0.495 0.195,0.107 0.382,0.23 0.557,0.37 0.834,0.662 1.36,1.609 1.481,2.667 0.122,1.058 -0.176,2.099 -0.856,2.954 l -5.018,5.971 C -7.451,-1.434 -3.768,-2 0,-2 20.148,-2 36.54,14.393 36.54,34.541 36.54,54.688 20.148,71.08 0,71.08"
         id="path80"
         style="fill:#62544d;fill-opacity:1;fill-rule:nonzero;stroke:none" /></g><g
       transform="translate(-503.09387,539.36653)"
       id="g82"><path
         d="m 0,0 c -1.736,-0.853 -3.494,-1.726 -4.881,-3.127 1.192,2.659 3.385,4.029 5.908,5.594 2.367,1.468 4.938,3.072 7.059,5.92 C 6.519,3.217 3.22,1.582 0,0 m -14.008,0.001 c -3.22,1.582 -6.518,3.216 -8.086,8.386 2.121,-2.848 4.692,-4.452 7.058,-5.919 2.523,-1.565 4.717,-2.935 5.908,-5.594 -1.387,1.401 -3.144,2.274 -4.88,3.127 m 1.456,6.781 c -2.167,0.908 -4.248,1.801 -5.242,5.258 1.488,-2.164 3.342,-3.149 4.971,-4.016 1.537,-0.816 2.896,-1.55 3.745,-3.197 -1.055,0.933 -2.295,1.461 -3.474,1.955 M -1.185,8.024 C 0.444,8.891 2.297,9.876 3.786,12.04 2.792,8.583 0.711,7.69 -1.456,6.782 -2.635,6.288 -3.875,5.76 -4.93,4.827 c 0.849,1.647 2.208,2.381 3.745,3.197 m -11.339,6.899 c 0.069,0.213 0.36,0.301 0.662,0.301 0.057,0 0.114,-0.003 0.171,-0.009 1.36,-0.145 2.97,-1.718 3.298,-4.83 -3.782,2.394 -4.284,4.066 -4.131,4.538 m 10.207,0.292 c 0.057,0.006 0.114,0.009 0.171,0.009 0.302,0 0.593,-0.088 0.663,-0.301 0.153,-0.472 -0.35,-2.144 -4.131,-4.537 0.329,3.112 1.938,4.684 3.297,4.829 m 13.303,-0.861 c -0.002,0.072 -0.017,0.137 -0.033,0.206 -0.015,0.06 -0.025,0.119 -0.05,0.174 -0.026,0.059 -0.063,0.108 -0.099,0.161 -0.037,0.053 -0.071,0.105 -0.117,0.151 -0.044,0.043 -0.096,0.073 -0.148,0.107 -0.057,0.039 -0.112,0.076 -0.177,0.102 -0.019,0.008 -0.033,0.023 -0.053,0.03 -0.048,0.016 -0.095,0.009 -0.143,0.018 -0.045,0.008 -0.084,0.029 -0.131,0.031 C 10.015,15.335 9.997,15.325 9.976,15.325 9.909,15.323 9.848,15.311 9.784,15.296 9.718,15.281 9.655,15.27 9.595,15.242 9.538,15.217 9.49,15.181 9.438,15.146 9.386,15.108 9.334,15.076 9.29,15.03 9.244,14.983 9.209,14.927 9.173,14.871 9.138,14.816 9.103,14.766 9.079,14.705 9.07,14.684 9.053,14.669 9.046,14.647 7.042,8.55 3.448,6.321 -0.026,4.167 -1.989,2.95 -3.897,1.757 -5.338,-0.038 -4.72,3.242 -2.89,4.012 -0.683,4.937 2.918,6.447 7,8.158 6.319,19.849 6.317,19.886 6.297,19.917 6.291,19.953 6.279,20.021 6.264,20.086 6.239,20.149 6.216,20.207 6.189,20.259 6.157,20.311 6.121,20.368 6.082,20.42 6.035,20.47 5.994,20.513 5.95,20.55 5.901,20.586 5.848,20.625 5.793,20.657 5.732,20.686 5.672,20.714 5.611,20.732 5.546,20.748 5.51,20.757 5.48,20.777 5.443,20.782 5.411,20.787 5.381,20.774 5.349,20.775 5.319,20.776 5.292,20.79 5.262,20.788 5.229,20.786 5.201,20.769 5.168,20.764 5.094,20.752 5.025,20.735 4.957,20.708 4.901,20.686 4.852,20.66 4.802,20.629 4.746,20.594 4.695,20.556 4.646,20.511 4.599,20.466 4.559,20.419 4.521,20.366 4.484,20.315 4.454,20.265 4.427,20.208 4.398,20.146 4.378,20.083 4.362,20.015 4.354,19.979 4.333,19.949 4.328,19.912 3.443,12.749 0.613,11.245 -2.124,9.791 -3.513,9.053 -4.92,8.297 -5.992,6.899 -5.995,6.923 -5.997,6.947 -6,6.972 c 0.033,0.315 0.064,0.632 0.099,0.946 0.077,0.021 0.153,0.054 0.226,0.096 6.492,3.738 6.424,6.508 6.093,7.526 -0.37,1.143 -1.555,1.814 -2.946,1.663 -1.698,-0.18 -3.514,-1.498 -4.473,-4.052 -0.952,2.543 -2.775,3.871 -4.479,4.052 -1.398,0.148 -2.576,-0.52 -2.946,-1.663 -0.331,-1.018 -0.399,-3.789 6.093,-7.526 0.073,-0.042 0.149,-0.075 0.226,-0.096 0.034,-0.31 0.065,-0.624 0.098,-0.937 -0.003,-0.026 -0.006,-0.053 -0.009,-0.08 -1.072,1.397 -2.478,2.152 -3.866,2.89 -2.737,1.454 -5.567,2.958 -6.451,10.121 -0.004,0.038 -0.026,0.067 -0.035,0.104 -0.015,0.066 -0.034,0.129 -0.063,0.189 -0.027,0.06 -0.06,0.113 -0.098,0.165 -0.036,0.05 -0.073,0.094 -0.118,0.137 -0.051,0.049 -0.104,0.088 -0.164,0.125 -0.048,0.029 -0.095,0.054 -0.147,0.074 -0.07,0.029 -0.14,0.046 -0.216,0.058 -0.032,0.005 -0.06,0.022 -0.094,0.024 -0.03,0.002 -0.057,-0.012 -0.087,-0.012 -0.032,-0.002 -0.061,0.01 -0.093,0.006 -0.036,-0.004 -0.064,-0.024 -0.099,-0.033 -0.07,-0.016 -0.135,-0.035 -0.199,-0.065 -0.055,-0.027 -0.104,-0.056 -0.153,-0.091 -0.055,-0.039 -0.103,-0.08 -0.148,-0.13 -0.043,-0.046 -0.079,-0.093 -0.112,-0.147 -0.035,-0.053 -0.063,-0.108 -0.087,-0.169 -0.024,-0.062 -0.039,-0.126 -0.05,-0.193 -0.007,-0.036 -0.026,-0.067 -0.028,-0.105 -0.681,-11.691 3.4,-13.402 7.001,-14.912 2.207,-0.925 4.037,-1.695 4.656,-4.975 -1.441,1.795 -3.35,2.988 -5.312,4.205 -3.475,2.154 -7.068,4.383 -9.073,10.48 -0.007,0.02 -0.022,0.034 -0.029,0.052 -0.028,0.072 -0.068,0.131 -0.11,0.193 -0.031,0.045 -0.057,0.09 -0.094,0.129 -0.054,0.057 -0.117,0.1 -0.183,0.143 -0.041,0.026 -0.077,0.055 -0.122,0.075 -0.065,0.03 -0.134,0.044 -0.206,0.059 -0.062,0.013 -0.121,0.026 -0.186,0.027 -0.02,0 -0.038,0.01 -0.059,0.009 -0.047,-0.002 -0.086,-0.023 -0.131,-0.031 -0.048,-0.009 -0.095,-0.002 -0.143,-0.018 -0.02,-0.007 -0.034,-0.022 -0.054,-0.03 -0.065,-0.026 -0.119,-0.063 -0.176,-0.102 -0.053,-0.034 -0.105,-0.064 -0.148,-0.107 -0.047,-0.046 -0.08,-0.098 -0.117,-0.151 -0.037,-0.053 -0.074,-0.102 -0.1,-0.161 -0.024,-0.055 -0.035,-0.114 -0.049,-0.174 -0.016,-0.069 -0.032,-0.134 -0.033,-0.206 -0.001,-0.02 -0.01,-0.038 -0.009,-0.058 0.444,-11.341 5.806,-13.975 10.113,-16.091 3.601,-1.768 6.446,-3.166 6.446,-9.002 0,-0.182 0.062,-0.345 0.148,-0.492 0.041,-0.312 0.209,-0.601 0.507,-0.758 0.149,-0.078 0.309,-0.115 0.465,-0.115 0.11,0 0.217,0.024 0.321,0.059 0.103,-0.035 0.21,-0.059 0.319,-0.059 0.157,0 0.317,0.037 0.465,0.115 0.299,0.157 0.467,0.447 0.508,0.759 0.086,0.146 0.148,0.309 0.148,0.491 0,5.836 2.844,7.234 6.445,9.002 4.307,2.116 9.668,4.75 10.113,16.091 0.001,0.02 -0.009,0.038 -0.009,0.058"
         id="path84"
         style="fill:#62544d;fill-opacity:1;fill-rule:nonzero;stroke:none" /></g><g
       transform="translate(-510.96597,560.88123)"
       id="g86"><path
         d="M 0,0 C 0.377,-0.52 1.244,-0.519 1.62,0.001 2.436,1.127 3.39,2.221 4.009,2.805 3.732,0.862 2.03,-2.233 0.81,-4.207 -0.404,-2.245 -2.096,0.829 -2.385,2.774 -1.735,2.18 -0.801,1.105 0,0 m 0.81,-7.05 c 0.331,0 0.64,0.164 0.826,0.437 0.452,0.663 4.412,6.571 4.412,9.92 0,1.83 -1.239,1.922 -1.487,1.922 -1.089,0 -2.531,-1.45 -3.751,-2.986 -1.221,1.535 -2.662,2.986 -3.751,2.986 -0.248,0 -1.487,-0.092 -1.487,-1.922 0,-3.349 3.96,-9.257 4.412,-9.92 C 0.17,-6.887 0.479,-7.05 0.81,-7.05"
         id="path88"
         style="fill:#62544d;fill-opacity:1;fill-rule:nonzero;stroke:none" /></g><g
       transform="translate(-652.72767,419.03063)"
       id="g90"><path
         d="m 0,0 12.129,0 c 0.552,0 1,0.447 1,1 0,0.553 -0.448,1 -1,1 L 0,2 C -0.552,2 -1,1.553 -1,1 -1,0.447 -0.552,0 0,0"
         id="path92"
         style="fill:#62544d;fill-opacity:1;fill-rule:nonzero;stroke:none" /></g><g
       transform="translate(-622.14957,379.89193)"
       id="g94"><path
         d="M 0,0 -0.011,6.437 8.534,6.45 8.545,0.014 0,0 z m -8.858,36.496 0,-36.603 -31.31,0 0,36.616 5.535,6.673 19.99,0 5.785,-6.686 z M 10.533,7.454 c -10e-4,0.552 -0.449,0.998 -1,0.998 l -0.002,0 L 4.92,8.444 C 5.273,44.159 -7.882,54.2 -15.748,54.487 c -5.534,0.187 -9.843,-3.666 -10.589,-9.305 l -8.766,0 c -0.297,0 -0.58,-0.133 -0.77,-0.362 l -6.065,-7.312 c -0.148,-0.18 -0.23,-0.405 -0.23,-0.639 l 0,-37.976 c 0,-0.553 0.448,-1 1,-1 l 33.31,0 c 0.552,0 1,0.447 1,1 l 0,37.976 c 0,0.24 -0.086,0.473 -0.244,0.654 l -6.327,7.313 c -0.19,0.22 -0.466,0.346 -0.757,0.346 l -10.131,0 c 0.712,4.445 4.141,7.466 8.496,7.306 C -8.676,52.229 3.267,42.639 2.92,8.441 L -1.014,8.435 C -1.28,8.435 -1.534,8.328 -1.721,8.141 -1.908,7.952 -2.013,7.698 -2.013,7.433 l 0.014,-8.437 c 0.001,-0.552 0.449,-0.998 1,-0.998 l 0.002,0 10.545,0.018 c 0.266,0 0.52,0.106 0.707,0.294 0.187,0.187 0.292,0.442 0.292,0.708 l -0.014,8.436 z"
         id="path96"
         style="fill:#62544d;fill-opacity:1;fill-rule:nonzero;stroke:none" /></g><g
       transform="translate(-381.96357,169.76203)"
       id="g98"><path
         d="m 0,0 c -1.746,-3.949 -4.417,-10.556 -4.417,-13.201 0,-3.528 1.98,-6.397 4.414,-6.397 2.436,0 4.418,2.869 4.418,6.397 C 4.415,-10.555 1.745,-3.949 0,0 m -0.003,-21.598 c -3.537,0 -6.414,3.767 -6.414,8.397 0,4.266 5.287,15.564 5.512,16.044 0.165,0.35 0.517,0.574 0.905,0.574 0.388,0 0.74,-0.224 0.905,-0.575 0.225,-0.479 5.51,-11.777 5.51,-16.043 0,-4.63 -2.879,-8.397 -6.418,-8.397"
         id="path100"
         style="fill:#62544d;fill-opacity:1;fill-rule:nonzero;stroke:none" /></g><g
       transform="translate(-393.50647,91.213233)"
       id="g102"><path
         d="m 0,0 23.084,0 0,24.217 c 0,0.279 0.117,0.545 0.321,0.734 0.205,0.191 0.482,0.284 0.758,0.263 l 0.173,-0.016 c 2.258,0 4.096,2.663 4.096,5.938 0,1.691 -1.02,3.452 -2.202,5.492 -1.184,2.043 -2.525,4.359 -3.065,7.103 -0.053,0.124 -0.081,0.277 -0.081,0.412 l 0,9.161 L 0,53.304 0,0 z M 24.084,-2 -1,-2 c -0.552,0 -1,0.447 -1,1 l 0,55.304 c 0,0.552 0.448,1 1,1 l 25.084,0 c 0.552,0 1,-0.448 1,-1 l 0,-10 c 0.017,-0.061 0.032,-0.125 0.044,-0.194 0.475,-2.41 1.673,-4.479 2.832,-6.48 1.271,-2.193 2.472,-4.266 2.472,-6.494 0,-4.047 -2.338,-7.397 -5.348,-7.878 l 0,-24.258 c 0,-0.553 -0.448,-1 -1,-1"
         id="path104"
         style="fill:#62544d;fill-opacity:1;fill-rule:nonzero;stroke:none" /></g><path
       d="m -248.77067,146.06933 16.33,0 0,5.519 -16.33,0 0,-5.519 z m 17.33,-2 -18.33,0 c -0.553,0 -1,0.448 -1,1 l 0,7.519 c 0,0.553 0.447,1 1,1 l 18.33,0 c 0.552,0 1,-0.447 1,-1 l 0,-7.519 c 0,-0.552 -0.448,-1 -1,-1"
       id="path106"
       style="fill:#62544d;fill-opacity:1;fill-rule:nonzero;stroke:none" /><g
       transform="translate(-253.68527,93.862633)"
       id="g108"><path
         d="m 0,0 25.743,0 0.003,0.969 c 0.077,33.299 0.068,40.83 0.048,41.284 -0.351,3.033 -2.25,5.423 -3.648,5.423 l -18.348,0 C 2.4,47.676 0.395,45.063 0.045,42.014 0.011,41.259 -0.002,19.102 0,0 M 26.741,-2 -1,-2 c -0.553,0 -1,0.447 -1,1 l 0,0.144 c -0.002,19.416 0.007,42.655 0.059,43.099 0.453,3.959 3.135,7.433 5.739,7.433 l 18.348,0 c 2.605,0 5.187,-3.317 5.638,-7.241 0.019,-0.157 0.058,-0.488 -0.038,-41.47 L 27.741,-1 c 0,-0.553 -0.447,-1 -1,-1"
         id="path110"
         style="fill:#62544d;fill-opacity:1;fill-rule:nonzero;stroke:none" /></g><g
       transform="translate(-237.28677,152.35873)"
       id="g112"><path
         d="M 0,0 C -0.057,0 -0.114,0.005 -0.172,0.015 -0.716,0.109 -1.081,0.627 -0.986,1.171 L 6.138,42.27 c 0.093,0.543 0.612,0.905 1.156,0.814 0.544,-0.095 0.909,-0.612 0.814,-1.156 L 0.984,0.829 C 0.9,0.343 0.478,0 0,0"
         id="path114"
         style="fill:#62544d;fill-opacity:1;fill-rule:nonzero;stroke:none" /></g><g
       transform="translate(-244.59347,152.35873)"
       id="g116"><path
         d="m 0,0 c -0.478,0 -0.9,0.343 -0.984,0.829 l -7.124,41.099 c -0.095,0.544 0.27,1.061 0.814,1.156 0.545,0.092 1.063,-0.271 1.156,-0.814 L 0.986,1.171 C 1.081,0.627 0.716,0.109 0.172,0.015 0.114,0.005 0.057,0 0,0"
         id="path118"
         style="fill:#62544d;fill-opacity:1;fill-rule:nonzero;stroke:none" /></g><g
       transform="translate(-240.75847,152.54033)"
       id="g120"><path
         d="m 0,0 c -0.553,0 -1,0.447 -1,1 l 0,42.561 c 0,0.552 0.447,1 1,1 0.553,0 1,-0.448 1,-1 L 1,1 C 1,0.447 0.553,0 0,0"
         id="path122"
         style="fill:#62544d;fill-opacity:1;fill-rule:nonzero;stroke:none" /></g><path
       d="m -124.57467,92.460333 21.495,0 0,21.574997 -21.495,0 0,-21.574997 z"
       id="path124"
       style="fill:#62544d;fill-opacity:1;fill-rule:nonzero;stroke:none" /><g
       transform="translate(-100.64807,91.213233)"
       id="g126"><path
         d="m 0,0 -26.079,0 0.006,3.518 c 0.025,18.038 0.054,38.79 0.046,39.164 -0.03,1.045 0.935,2.846 2.242,4.19 1.008,1.036 1.813,1.403 2.197,1.403 0.553,0 1,0.448 1,1 l 0,1.697 14.849,0 0,-1.784 c 0,-0.553 0.447,-1 1,-1 0.645,0 1.886,-0.596 3.01,-1.734 C -0.585,45.297 0.063,43.987 0.05,42.859 0.045,42.355 0.007,6.494 0,0 m -23.572,65.277 c 0,1.585 0.992,3.295 2.594,3.295 l 15.248,0 c 1.624,0 2.945,-1.321 2.945,-2.945 l 0,-9.711 c 0,-0.105 -0.004,-0.229 -0.013,-0.363 -0.007,-0.092 -0.019,-0.194 -0.033,-0.294 -0.005,-0.045 -0.008,-0.087 -0.015,-0.133 -0.022,-0.139 -0.053,-0.283 -0.092,-0.429 -0.003,-0.009 -0.004,-0.02 -0.007,-0.031 -0.22,-0.781 -0.727,-1.571 -1.87,-1.665 -0.077,-0.007 -0.138,-0.029 -0.22,-0.029 l -15.943,0 c -0.161,0 -0.309,0.016 -0.458,0.035 -0.006,0.001 -0.012,0.006 -0.019,0.007 -0.329,0.044 -0.623,0.134 -0.881,0.264 -0.009,0.005 -0.018,0.009 -0.026,0.013 -0.113,0.059 -0.215,0.128 -0.313,0.202 -0.025,0.02 -0.051,0.039 -0.074,0.06 -0.082,0.068 -0.157,0.142 -0.227,0.221 -0.033,0.039 -0.063,0.078 -0.093,0.119 -0.056,0.073 -0.109,0.149 -0.156,0.231 -0.034,0.06 -0.062,0.124 -0.091,0.189 -0.035,0.074 -0.069,0.147 -0.096,0.226 -0.03,0.092 -0.052,0.19 -0.073,0.287 -0.015,0.065 -0.035,0.127 -0.045,0.195 -0.027,0.173 -0.042,0.354 -0.042,0.545 l 0,9.711 z M -0.306,47.86 c -1.079,1.092 -2.321,1.87 -3.433,2.179 l 0,1.141 c 0.027,0.008 0.051,0.023 0.078,0.032 0.185,0.062 0.365,0.131 0.536,0.219 0.057,0.029 0.108,0.065 0.163,0.096 0.227,0.132 0.439,0.284 0.634,0.459 0.112,0.1 0.226,0.196 0.328,0.309 0.07,0.079 0.129,0.171 0.193,0.257 0.1,0.13 0.197,0.261 0.282,0.405 0.054,0.092 0.1,0.19 0.149,0.287 0.079,0.158 0.151,0.322 0.216,0.494 0.037,0.101 0.072,0.201 0.103,0.306 0.06,0.194 0.106,0.398 0.145,0.607 0.018,0.096 0.041,0.189 0.055,0.287 0.044,0.314 0.072,0.637 0.072,0.978 l 0,9.711 c 0,2.727 -2.219,4.945 -4.945,4.945 l -15.248,0 c -2.876,0 -4.594,-2.692 -4.594,-5.295 l 0,-9.711 c 0,-0.304 0.029,-0.594 0.075,-0.877 0.018,-0.117 0.048,-0.226 0.073,-0.339 0.035,-0.15 0.073,-0.295 0.121,-0.437 0.047,-0.142 0.098,-0.277 0.157,-0.41 0.038,-0.084 0.082,-0.164 0.124,-0.245 0.292,-0.56 0.69,-1.032 1.187,-1.399 0.002,-0.002 0.004,-0.004 0.007,-0.005 0.166,-0.123 0.344,-0.228 0.53,-0.327 0.037,-0.019 0.075,-0.038 0.113,-0.056 0.183,-0.089 0.371,-0.169 0.57,-0.235 0.01,-0.003 0.017,-0.007 0.027,-0.01 l 0,-1.13 c -1.087,-0.375 -2.069,-1.252 -2.631,-1.829 -1.434,-1.475 -2.859,-3.791 -2.808,-5.633 0.008,-0.558 -0.032,-28.569 -0.046,-39.113 L -28.08,-1 c 0,-0.553 0.447,-1 1,-1 l 28.079,0 c 0.553,0 1,0.447 1,1 0,0.386 0.046,43.372 0.051,43.838 0.02,1.655 -0.838,3.486 -2.356,5.022"
         id="path128"
         style="fill:#62544d;fill-opacity:1;fill-rule:nonzero;stroke:none" /></g><g
       transform="translate(-408.69937,558.96813)"
       id="g138"><path
         d="m 0,0 c 0,0 1.813,8.98 0.025,11.779 -1.789,2.799 -4.782,-4.341 -4.782,-4.341 0,0 -7.733,0.282 -5.943,-2.517 C -8.913,2.123 0,0 0,0"
         id="path140"
         style="fill:#62544d;fill-opacity:1;fill-rule:nonzero;stroke:none" /></g><g
       transform="translate(-411.55827,553.54333)"
       id="g142"><path
         d="m 0,0 c 0,0 -6.872,6.061 -10.188,5.91 -3.318,-0.15 1.368,-6.31 1.368,-6.31 0,0 -4.111,-6.558 -0.791,-6.408 C -6.295,-6.657 0,0 0,0"
         id="path144"
         style="fill:#62544d;fill-opacity:1;fill-rule:nonzero;stroke:none" /></g><g
       transform="translate(-418.50207,542.48473)"
       id="g146"><path
         d="m 0,0 c -1.529,-2.949 6.148,-1.971 6.148,-1.971 0,0 3.623,-6.837 5.155,-3.888 C 12.83,-2.914 10.214,5.868 10.214,5.868 10.214,5.868 1.528,2.945 0,0"
         id="path148"
         style="fill:#62544d;fill-opacity:1;fill-rule:nonzero;stroke:none" /></g><g
       transform="translate(-402.16127,548.58923)"
       id="g150"><path
         d="m 0,0 c 0,0 -1.812,-8.982 -0.025,-11.779 1.79,-2.798 4.781,4.341 4.781,4.341 0,0 7.735,-0.284 5.947,2.516 C 8.915,-2.124 0,0 0,0"
         id="path152"
         style="fill:#62544d;fill-opacity:1;fill-rule:nonzero;stroke:none" /></g><g
       transform="translate(-390.48157,554.41443)"
       id="g154"><path
         d="m 0,0 c 0,0 4.113,6.559 0.794,6.408 -3.315,-0.15 -9.614,-6.805 -9.614,-6.805 0,0 6.875,-6.062 10.189,-5.913 C 4.689,-6.159 0,0 0,0"
         id="path156"
         style="fill:#62544d;fill-opacity:1;fill-rule:nonzero;stroke:none" /></g><g
       transform="translate(-392.35567,565.07453)"
       id="g158"><path
         d="m 0,0 c 1.528,2.949 -6.15,1.967 -6.15,1.967 0,0 -3.623,6.842 -5.153,3.892 -1.528,-2.946 1.088,-11.728 1.088,-11.728 0,0 8.686,2.921 10.215,5.869"
         id="path160"
         style="fill:#62544d;fill-opacity:1;fill-rule:nonzero;stroke:none" /></g><g
       transform="translate(-331.84247,540.12043)"
       id="g162"><path
         d="m 0,0 c -4.619,-7.623 -12.705,-12.174 -21.63,-12.173 -2.965,0 -5.878,0.517 -8.655,1.535 -0.461,0.17 -0.977,-0.021 -1.218,-0.45 0,0 -1.457,-2.606 -1.69,-3.018 -1.347,-2.371 -5.128,-10.223 -7.889,-15.957 -0.497,-1.033 -0.984,-2.045 -1.415,-2.936 -0.717,-1.484 -1.276,-2.631 -1.457,-2.97 -0.519,-0.493 -1.169,-0.803 -1.938,-0.927 -0.256,-0.042 -0.526,-0.063 -0.809,-0.063 -2.428,0 -5.398,1.572 -7.063,3.737 -0.238,0.311 -0.442,0.624 -0.609,0.937 -0.5,0.937 -0.672,1.868 -0.488,2.702 0.036,0.057 0.097,0.147 0.16,0.241 0.14,0.207 0.336,0.491 0.586,0.851 l 0.002,0.003 c 1.712,2.457 5.802,8.173 8.841,12.413 l 1.404,1.959 c 0.141,0.197 0.278,0.387 0.413,0.577 1.213,1.691 2.199,3.067 2.733,3.817 0.268,0.376 1.887,2.929 2.07,3.219 0.252,0.398 0.193,0.918 -0.143,1.248 -0.507,0.498 -0.986,1.017 -1.446,1.548 -3.172,3.686 -5.318,8.286 -6.106,13.157 -10e-4,0.008 -0.006,0.014 -0.007,0.021 -0.417,2.633 -0.424,5.306 -0.021,7.925 0.107,0.693 0.245,1.375 0.406,2.047 0.029,0.117 0.053,0.234 0.083,0.349 0.155,0.607 0.341,1.201 0.54,1.789 0.055,0.16 0.102,0.323 0.161,0.483 0.2,0.55 0.431,1.085 0.67,1.616 0.077,0.171 0.141,0.344 0.222,0.513 0.327,0.682 0.683,1.349 1.076,1.996 4.62,7.625 12.707,12.177 21.632,12.177 4.598,0 9.116,-1.265 13.069,-3.662 C 3.4,27.483 7.221,11.915 0,0 m -58.574,-19.021 c -1.19,2.222 -2.172,4.056 -2.677,4.99 -0.219,0.406 -1.795,2.985 -1.975,3.277 -0.245,0.402 -0.739,0.573 -1.183,0.423 -2.774,-0.971 -5.697,-1.462 -8.689,-1.462 -8.897,0 -16.926,4.251 -21.479,11.373 -7.505,11.736 -4.06,27.392 7.679,34.899 4.074,2.605 8.772,3.982 13.585,3.982 8.678,0 16.646,-4.359 21.313,-11.661 1.825,-2.855 3.037,-6.017 3.605,-9.4 -0.38,-2.671 -0.359,-5.393 0.05,-8.076 -0.855,-5.495 -3.505,-10.602 -7.478,-14.394 -0.356,-0.34 -0.412,-0.888 -0.133,-1.292 0,0 1.692,-2.451 1.961,-2.85 0.868,-1.275 2.733,-3.673 5.82,-7.481 -3.376,-4.714 -5.414,-7.574 -6.648,-9.324 -1.284,2.391 -2.612,4.869 -3.751,6.996 m 13.168,19.404 c 0.634,-1.21 1.356,-2.379 2.169,-3.5 0.207,-0.287 0.418,-0.571 0.635,-0.851 0.172,-0.219 0.345,-0.437 0.524,-0.652 0.414,-0.5 0.84,-0.989 1.288,-1.459 0.008,-0.008 0.015,-0.017 0.022,-0.025 -0.654,-1.03 -1.438,-2.254 -1.583,-2.457 -0.604,-0.849 -1.784,-2.495 -3.218,-4.495 -0.49,-0.683 -0.951,-1.327 -1.399,-1.952 -2.818,3.486 -4.579,5.754 -5.37,6.917 -0.177,0.261 -0.97,1.413 -1.495,2.174 2.984,3.039 5.22,6.786 6.514,10.869 0.485,-1.517 1.099,-2.998 1.84,-4.429 0.023,-0.046 0.048,-0.093 0.073,-0.14 m 37.927,36.032 c -4.265,2.585 -9.143,3.951 -14.106,3.951 -9.631,0 -18.357,-4.912 -23.343,-13.139 -0.345,-0.571 -0.659,-1.158 -0.957,-1.751 -0.082,-0.164 -0.162,-0.327 -0.24,-0.491 -0.251,-0.527 -0.487,-1.06 -0.702,-1.605 -0.063,-0.158 -0.121,-0.318 -0.18,-0.477 -0.141,-0.379 -0.28,-0.759 -0.403,-1.146 -0.706,2.153 -1.677,4.201 -2.905,6.121 -5.037,7.879 -13.635,12.583 -22.998,12.583 -5.195,0 -10.266,-1.486 -14.663,-4.297 -12.668,-8.102 -16.384,-24.996 -8.286,-37.662 4.922,-7.699 13.581,-12.295 23.164,-12.295 2.942,0 5.825,0.442 8.58,1.317 0.645,-1.058 1.388,-2.285 1.508,-2.506 0.503,-0.932 1.484,-2.764 2.673,-4.984 1.281,-2.391 2.804,-5.233 4.231,-7.888 -0.557,-0.807 -0.611,-0.917 -0.65,-1.064 -0.004,-0.012 -0.007,-0.023 -0.01,-0.035 -0.464,-1.745 0.038,-3.694 1.416,-5.487 2.045,-2.661 5.601,-4.519 8.649,-4.519 1.707,0 3.178,0.576 4.252,1.665 0.193,0.194 0.204,0.206 3.169,6.363 2.749,5.708 6.512,13.526 7.828,15.839 0.154,0.274 0.835,1.489 1.285,2.295 2.754,-0.913 5.622,-1.376 8.537,-1.376 l 10e-4,0 c 9.63,0 18.356,4.91 23.34,13.136 7.791,12.858 3.669,29.659 -9.19,37.452"
         id="path164"
         style="fill:#62544d;fill-opacity:1;fill-rule:nonzero;stroke:none" /></g><g
       transform="translate(-377.83367,509.81473)"
       id="g166"><path
         d="m 0,0 c -0.455,-0.751 -1.495,-1.013 -2.253,-0.554 -0.773,0.469 -1.021,1.48 -0.553,2.253 0.301,0.495 0.826,0.79 1.406,0.79 0.297,0 0.588,-0.082 0.845,-0.237 C -0.18,2.024 0.084,1.665 0.189,1.239 0.294,0.813 0.227,0.374 0,0 m 0.482,3.962 c -0.568,0.346 -1.219,0.527 -1.882,0.527 -1.267,0 -2.46,-0.672 -3.116,-1.753 -1.04,-1.716 -0.49,-3.96 1.226,-5.001 0.57,-0.344 1.221,-0.527 1.884,-0.527 1.285,0 2.45,0.656 3.116,1.755 0.504,0.831 0.654,1.808 0.421,2.754 C 1.899,2.661 1.313,3.459 0.482,3.962"
         id="path168"
         style="fill:#62544d;fill-opacity:1;fill-rule:nonzero;stroke:none" /></g><g
       transform="translate(-357.86197,559.61163)"
       id="g170"><path
         d="M 0,0 C 1.835,-1.111 4.222,-0.527 5.335,1.307 6.445,3.142 5.859,5.53 4.024,6.643 2.19,7.752 -0.195,7.168 -1.309,5.332 -2.419,3.498 -1.834,1.11 0,0"
         id="path172"
         style="fill:#62544d;fill-opacity:1;fill-rule:nonzero;stroke:none" /></g><g
       transform="translate(-343.00457,559.68783)"
       id="g174"><path
         d="M 0,0 C -1.835,1.112 -4.223,0.527 -5.334,-1.307 -6.444,-3.141 -5.859,-5.529 -4.026,-6.64 -2.19,-7.752 0.197,-7.166 1.308,-5.333 2.419,-3.498 1.834,-1.111 0,0"
         id="path176"
         style="fill:#62544d;fill-opacity:1;fill-rule:nonzero;stroke:none" /></g><g
       transform="translate(-347.68817,547.15563)"
       id="g178"><path
         d="m 0,0 c -4.349,-1.411 -7.852,-1.241 -10.427,0.539 -2.907,2.003 -4.085,5.732 -4.217,8.556 -0.045,1.019 -0.924,1.831 -1.955,1.811 -1.034,-0.018 -1.834,-0.861 -1.784,-1.882 0.222,-4.82 2.418,-9.118 5.867,-11.494 0.176,-0.122 0.364,-0.241 0.558,-0.36 2.562,-1.551 6.816,-2.758 13.217,-0.683 0.973,0.317 1.482,1.36 1.135,2.329 C 2.047,-0.216 0.977,0.312 0,0"
         id="path180"
         style="fill:#62544d;fill-opacity:1;fill-rule:nonzero;stroke:none" /></g><g
       transform="translate(-212.90497,402.08433)"
       id="g190"><path
         d="m 0,0 c -4.293,-6.179 -8.027,-11.507 -19.446,-8.728 -0.006,0.04 0.002,0.077 -0.009,0.115 -0.037,0.129 -0.06,0.249 -0.094,0.376 3.908,3.695 8.618,6.762 14.094,8.365 0.529,0.155 0.834,0.711 0.679,1.241 -0.156,0.528 -0.711,0.835 -1.242,0.679 -5.388,-1.577 -10.069,-4.496 -14.013,-8.038 -0.538,3.38 -0.024,6.079 1.591,8.178 3.404,4.427 11.762,6.528 26.758,6.664 C 4.664,6.699 2.301,3.313 0,0 m -60.229,-15.338 c -7.13,6.322 -9.571,20.899 -7.758,46.883 2.751,-7.318 8.521,-11.976 14.15,-16.499 9.118,-7.327 17.738,-14.265 12.311,-32.208 -1.205,1.603 -2.465,3.215 -3.742,4.844 -6.14,7.839 -12.491,15.945 -13.992,25.329 -0.086,0.544 -0.592,0.918 -1.145,0.829 -0.545,-0.087 -0.916,-0.6 -0.829,-1.146 1.583,-9.893 8.094,-18.207 14.392,-26.246 1.292,-1.649 2.567,-3.28 3.781,-4.901 -7.51,-1.474 -13.136,-0.458 -17.168,3.115 M 14.696,9.341 c 0.032,0.055 0.056,0.112 0.076,0.174 0.022,0.062 0.035,0.124 0.042,0.19 0.005,0.035 0.022,0.065 0.023,0.101 10e-4,0.034 -0.015,0.064 -0.018,0.097 -0.003,0.034 0.008,0.065 0.002,0.098 -0.006,0.034 -0.027,0.061 -0.037,0.093 -0.018,0.067 -0.043,0.129 -0.075,0.19 -0.028,0.056 -0.061,0.105 -0.099,0.154 -0.041,0.051 -0.085,0.096 -0.135,0.139 -0.047,0.04 -0.096,0.074 -0.15,0.105 -0.056,0.033 -0.114,0.057 -0.178,0.079 -0.061,0.02 -0.123,0.033 -0.188,0.042 -0.035,0.004 -0.066,0.021 -0.103,0.022 -19.462,0.366 -29.598,-1.846 -33.882,-7.417 -2.185,-2.843 -2.746,-6.468 -1.732,-11.03 -6.782,-6.769 -11.081,-15.257 -12.668,-21.174 -1.35,3.258 -3.34,6.442 -5.635,9.636 6.735,20.286 -3.054,28.155 -12.523,35.764 -6.778,5.448 -13.787,11.08 -14.903,21.455 -0.004,0.037 -0.024,0.066 -0.032,0.101 -0.012,0.061 -0.029,0.117 -0.053,0.174 -0.029,0.07 -0.064,0.133 -0.107,0.193 -0.028,0.039 -0.056,0.076 -0.09,0.11 -0.055,0.057 -0.114,0.105 -0.182,0.148 -0.043,0.028 -0.087,0.051 -0.135,0.071 -0.066,0.029 -0.135,0.048 -0.208,0.062 -0.034,0.007 -0.062,0.026 -0.099,0.029 -0.036,0.004 -0.067,-0.01 -0.102,-0.01 -0.032,0 -0.061,0.011 -0.094,0.008 -0.031,-0.003 -0.057,-0.021 -0.088,-0.027 -0.076,-0.016 -0.146,-0.037 -0.216,-0.068 -0.048,-0.023 -0.092,-0.047 -0.136,-0.077 -0.062,-0.041 -0.116,-0.085 -0.167,-0.14 -0.039,-0.041 -0.073,-0.083 -0.105,-0.13 -0.037,-0.057 -0.067,-0.113 -0.093,-0.177 -0.025,-0.061 -0.042,-0.121 -0.054,-0.187 -0.007,-0.035 -0.027,-0.063 -0.03,-0.099 -2.77,-31.084 -0.401,-47.495 7.923,-54.874 3.227,-2.861 7.291,-4.28 12.317,-4.28 2.22,0 4.631,0.277 7.237,0.83 0.08,0.016 0.146,0.059 0.217,0.094 4.096,-5.685 7.204,-11.281 7.204,-17.157 0,-0.552 0.447,-1 1,-1 0.553,0 1,0.448 1,1 0,2.351 -0.446,4.632 -1.21,6.872 0.07,-0.015 0.142,-0.026 0.211,-0.026 0.448,0 0.855,0.303 0.969,0.758 1.367,5.469 5.278,13.456 11.508,19.965 0.068,-0.372 0.339,-0.691 0.73,-0.791 2.48,-0.638 4.652,-0.923 6.574,-0.923 8.249,0 11.895,5.246 15.441,10.351 3.169,4.562 6.161,8.87 12.37,9.982 0.036,0.007 0.064,0.029 0.098,0.039 0.068,0.019 0.13,0.043 0.19,0.075 0.055,0.029 0.104,0.062 0.152,0.101 0.051,0.041 0.096,0.084 0.138,0.133 0.041,0.048 0.074,0.097 0.105,0.152"
         id="path192"
         style="fill:#62544d;fill-opacity:1;fill-rule:nonzero;stroke:none" /></g><g
       transform="translate(-614.11637,253.34313)"
       id="g194"><path
         d="m 0,0 -8.053,-5.369 0,20.335 L 0,19.528 0,0 z m -9.645,16.549 -10.553,0 5.544,3.695 11.75,0 -6.741,-3.695 z m -0.744,-22.786 -20.783,0 0,1.68 0,19.106 20.783,0 0,-20.786 z m -23.882,23.875 -0.271,0 -9.446,0 0,3.606 0,17.179 20.784,0 0,-17.409 0,-3.376 -11.067,0 z m 1.099,-2.089 0,-19.57 -2.02,-1.348 0,20.335 1.186,0.672 0.852,0 c -0.003,-0.032 -0.018,-0.058 -0.018,-0.089 m -4.357,-21.786 -20.784,0 0,20.786 20.784,0 0,-20.786 z m -11.139,26.481 2.68,0 0,-3.606 c 0,-0.032 0.015,-0.059 0.018,-0.089 l -9.439,0 6.741,3.695 z m 35.852,23.158 0,-19.53 -2.695,-1.796 -0.001,0 -5.356,-3.57 0,2.692 0,17.642 8.052,4.562 z m -21.528,0.716 18.624,0 -6.74,-3.695 -18.624,0 6.74,3.695 z M 1.971,21.461 c -0.002,0.011 0,0.02 -0.002,0.031 -0.001,0.002 -0.002,0.003 -0.002,0.005 -0.026,0.098 -0.069,0.19 -0.122,0.274 -0.016,0.027 -0.036,0.048 -0.055,0.073 -0.042,0.055 -0.088,0.106 -0.142,0.152 -0.026,0.023 -0.052,0.043 -0.081,0.064 -0.022,0.014 -0.04,0.035 -0.064,0.048 -0.038,0.023 -0.08,0.034 -0.12,0.051 -0.028,0.012 -0.053,0.026 -0.082,0.034 -0.098,0.032 -0.198,0.051 -0.3,0.051 l -10e-4,0 -12.653,0 0.391,0.261 c 0.279,0.185 0.446,0.498 0.446,0.832 l 0,21.781 c 0,0.074 -0.013,0.146 -0.029,0.217 -0.002,0.011 0,0.02 -0.003,0.031 0,0.002 -10e-4,0.003 -0.002,0.005 -0.025,0.098 -0.068,0.19 -0.122,0.275 -0.016,0.026 -0.036,0.047 -0.054,0.072 -0.042,0.055 -0.089,0.106 -0.142,0.152 -0.026,0.023 -0.053,0.043 -0.082,0.063 -0.021,0.015 -0.04,0.036 -0.063,0.049 -0.038,0.023 -0.08,0.034 -0.12,0.05 -0.027,0.013 -0.054,0.027 -0.083,0.035 -0.098,0.032 -0.198,0.051 -0.299,0.051 l -0.001,0 -22.785,0 c -0.168,0 -0.333,-0.042 -0.481,-0.123 L -45.469,40.3 c -0.057,-0.031 -0.1,-0.077 -0.149,-0.117 -0.03,-0.026 -0.064,-0.044 -0.09,-0.072 -0.084,-0.088 -0.152,-0.185 -0.199,-0.295 -0.005,-0.012 -0.005,-0.026 -0.01,-0.04 -0.039,-0.1 -0.06,-0.207 -0.064,-0.317 0,-0.013 -0.007,-0.023 -0.007,-0.036 l 0,-17.179 -2.936,0 c -0.168,0 -0.334,-0.042 -0.481,-0.123 l -10.389,-5.695 c -0.057,-0.031 -0.1,-0.077 -0.149,-0.117 -0.03,-0.026 -0.063,-0.044 -0.09,-0.072 -0.083,-0.088 -0.152,-0.185 -0.198,-0.295 -0.006,-0.012 -0.006,-0.027 -0.011,-0.039 -0.038,-0.101 -0.06,-0.208 -0.064,-0.318 0,-0.013 -0.007,-0.023 -0.007,-0.036 l 0,-22.786 c 0,-0.553 0.448,-1 1,-1 l 22.784,0 c 0.042,0 0.078,0.018 0.119,0.024 0.262,-0.058 0.542,-0.009 0.772,0.144 l 2.466,1.644 0,-0.812 c 0,-0.553 0.448,-1 1,-1 l 22.783,0 c 0.045,0 0.083,0.019 0.127,0.025 0.069,-0.015 0.138,-0.025 0.209,-0.025 0.194,0 0.387,0.056 0.554,0.168 L 1.555,-1.367 C 1.833,-1.182 2,-0.869 2,-0.535 l 0,21.779 c 0,0.074 -0.013,0.146 -0.029,0.217"
         id="path196"
         style="fill:#62544d;fill-opacity:1;fill-rule:nonzero;stroke:none" /></g><path
       d="m -492.04667,234.17233 -39.038,0 0,35.331 39.038,0 0,-35.331 z m 1,37.331 -41.038,0 c -0.552,0 -1,-0.447 -1,-1 l 0,-37.331 c 0,-0.553 0.448,-1 1,-1 l 41.038,0 c 0.552,0 1,0.447 1,1 l 0,37.331 c 0,0.553 -0.448,1 -1,1"
       id="path198"
       style="fill:#62544d;fill-opacity:1;fill-rule:nonzero;stroke:none" /><g
       transform="translate(-524.08317,305.94763)"
       id="g200"><path
         d="m 0,0 -5.156,0 0,-5.628 c 0,-0.276 -0.224,-0.5 -0.5,-0.5 -0.277,0 -0.5,0.224 -0.5,0.5 l 0,6.128 c 0,0.276 0.223,0.5 0.5,0.5 0.008,0 0.015,-0.004 0.023,-0.005 C -5.625,0.996 -5.619,1 -5.61,1 L 0,1 C 0.276,1 0.5,0.776 0.5,0.5 0.5,0.224 0.276,0 0,0 m 4.702,2.522 -12.535,0 0,-11.404 12.535,0 0,11.404 z"
         id="path202"
         style="fill:#62544d;fill-opacity:1;fill-rule:nonzero;stroke:none" /></g><g
       transform="translate(-509.90887,305.94763)"
       id="g204"><path
         d="m 0,0 -5.158,0 0,-5.628 c 0,-0.276 -0.224,-0.5 -0.5,-0.5 -0.277,0 -0.5,0.224 -0.5,0.5 l 0,6.128 c 0,0.276 0.223,0.5 0.5,0.5 C -5.65,1 -5.643,0.996 -5.635,0.995 -5.626,0.996 -5.62,1 -5.611,1 L 0,1 C 0.276,1 0.5,0.776 0.5,0.5 0.5,0.224 0.276,0 0,0 m 4.376,2.522 -12.535,0 0,-11.404 12.535,0 0,11.404 z"
         id="path206"
         style="fill:#62544d;fill-opacity:1;fill-rule:nonzero;stroke:none" /></g><g
       transform="translate(-496.70137,305.94763)"
       id="g208"><path
         d="m 0,0 -5.157,0 0,-5.628 c 0,-0.276 -0.223,-0.5 -0.5,-0.5 -0.276,0 -0.5,0.224 -0.5,0.5 l 0,6.128 c 0,0.276 0.224,0.5 0.5,0.5 0.009,0 0.015,-0.004 0.024,-0.005 C -5.625,0.996 -5.618,1 -5.61,1 L 0,1 C 0.276,1 0.5,0.776 0.5,0.5 0.5,0.224 0.276,0 0,0 m 5.019,2.522 -12.536,0 0,-11.404 12.536,0 0,11.404 z"
         id="path210"
         style="fill:#62544d;fill-opacity:1;fill-rule:nonzero;stroke:none" /></g><g
       transform="translate(-524.08317,294.06673)"
       id="g212"><path
         d="m 0,0 -5.156,0 0,-5.628 c 0,-0.276 -0.224,-0.5 -0.5,-0.5 -0.277,0 -0.5,0.224 -0.5,0.5 l 0,6.128 c 0,0.276 0.223,0.5 0.5,0.5 0.008,0 0.015,-0.004 0.023,-0.005 C -5.625,0.996 -5.619,1 -5.61,1 L 0,1 C 0.276,1 0.5,0.776 0.5,0.5 0.5,0.224 0.276,0 0,0 m 4.702,2.101 -12.535,0 0,-11.405 12.535,0 0,11.405 z"
         id="path214"
         style="fill:#62544d;fill-opacity:1;fill-rule:nonzero;stroke:none" /></g><g
       transform="translate(-509.90887,294.06673)"
       id="g216"><path
         d="m 0,0 -5.158,0 0,-5.628 c 0,-0.276 -0.224,-0.5 -0.5,-0.5 -0.277,0 -0.5,0.224 -0.5,0.5 l 0,6.128 c 0,0.276 0.223,0.5 0.5,0.5 C -5.65,1 -5.643,0.996 -5.635,0.995 -5.626,0.996 -5.62,1 -5.611,1 L 0,1 C 0.276,1 0.5,0.776 0.5,0.5 0.5,0.224 0.276,0 0,0 m 4.376,2.101 -12.535,0 0,-11.405 12.535,0 0,11.405 z"
         id="path218"
         style="fill:#62544d;fill-opacity:1;fill-rule:nonzero;stroke:none" /></g><g
       transform="translate(-496.70137,294.06673)"
       id="g220"><path
         d="m 0,0 -5.157,0 0,-5.628 c 0,-0.276 -0.223,-0.5 -0.5,-0.5 -0.276,0 -0.5,0.224 -0.5,0.5 l 0,6.128 c 0,0.276 0.224,0.5 0.5,0.5 0.009,0 0.015,-0.004 0.024,-0.005 C -5.625,0.996 -5.618,1 -5.61,1 L 0,1 C 0.276,1 0.5,0.776 0.5,0.5 0.5,0.224 0.276,0 0,0 m 5.019,2.101 -12.536,0 0,-11.405 12.536,0 0,11.405 z"
         id="path222"
         style="fill:#62544d;fill-opacity:1;fill-rule:nonzero;stroke:none" /></g><g
       transform="translate(-524.08317,281.22103)"
       id="g224"><path
         d="m 0,0 -5.156,0 0,-5.628 c 0,-0.276 -0.224,-0.5 -0.5,-0.5 -0.277,0 -0.5,0.224 -0.5,0.5 l 0,6.128 c 0,0.276 0.223,0.5 0.5,0.5 0.008,0 0.015,-0.004 0.023,-0.005 C -5.625,0.996 -5.619,1 -5.61,1 L 0,1 C 0.276,1 0.5,0.776 0.5,0.5 0.5,0.224 0.276,0 0,0 m 4.702,2.643 -12.535,0 0,-11.405 12.535,0 0,11.405 z"
         id="path226"
         style="fill:#62544d;fill-opacity:1;fill-rule:nonzero;stroke:none" /></g><g
       transform="translate(-509.90887,281.22103)"
       id="g228"><path
         d="m 0,0 -5.158,0 0,-5.628 c 0,-0.276 -0.224,-0.5 -0.5,-0.5 -0.277,0 -0.5,0.224 -0.5,0.5 l 0,6.128 c 0,0.276 0.223,0.5 0.5,0.5 C -5.65,1 -5.643,0.996 -5.635,0.995 -5.626,0.996 -5.62,1 -5.611,1 L 0,1 C 0.276,1 0.5,0.776 0.5,0.5 0.5,0.224 0.276,0 0,0 m 4.376,2.643 -12.535,0 0,-11.405 12.535,0 0,11.405 z"
         id="path230"
         style="fill:#62544d;fill-opacity:1;fill-rule:nonzero;stroke:none" /></g><g
       transform="translate(-496.70137,281.22103)"
       id="g232"><path
         d="m 0,0 -5.157,0 0,-5.628 c 0,-0.276 -0.223,-0.5 -0.5,-0.5 -0.276,0 -0.5,0.224 -0.5,0.5 l 0,6.128 c 0,0.276 0.224,0.5 0.5,0.5 0.009,0 0.015,-0.004 0.024,-0.005 C -5.625,0.996 -5.618,1 -5.61,1 L 0,1 C 0.276,1 0.5,0.776 0.5,0.5 0.5,0.224 0.276,0 0,0 m 5.019,2.643 -12.536,0 0,-11.405 12.536,0 0,11.405 z"
         id="path234"
         style="fill:#62544d;fill-opacity:1;fill-rule:nonzero;stroke:none" /></g><g
       transform="translate(-332.16957,403.92313)"
       id="g236"><path
         d="m 0,0 c -5.726,-13.598 -8.012,-18.969 -16.583,-20.585 0.846,3.121 0.96,6.484 0.304,9.998 -0.424,2.266 -0.95,4.431 -1.562,6.502 6.488,0.467 10.89,5.364 13.827,8.646 1.039,1.161 2.462,2.751 2.966,2.776 L 3.218,7.551 C 2.018,4.793 0.955,2.268 0,0 m -22.187,-27.079 c -5.689,-6.851 -16.868,-11.107 -29.173,-11.107 -11.793,0 -22.288,3.883 -28.074,10.388 -4.111,4.622 -5.804,10.312 -5.029,16.911 0.868,7.399 3.26,13.892 6.821,19.129 0.041,-0.005 0.079,-0.024 0.121,-0.024 l 51.869,0 c 3.456,-5.158 5.993,-11.609 7.406,-19.172 1.152,-6.164 -0.174,-11.59 -3.941,-16.125 m -75.416,18.584 c -1.21,5.156 0.278,10.569 3.703,13.469 3.087,2.616 7.411,2.961 12.174,0.969 0.102,-0.043 0.208,-0.054 0.312,-0.062 -2.566,-4.793 -4.311,-10.362 -5.036,-16.535 -0.412,-3.512 -0.149,-6.85 0.759,-9.934 -6.245,1.953 -10.553,6.298 -11.912,12.093 m 46.243,30.821 c 9.912,0 18.275,-4.313 24.275,-12.108 l -49.104,0 c 6,7.626 14.713,12.108 24.829,12.108 m -4.878,7.908 c 0,2.69 2.188,4.878 4.878,4.878 2.69,0 4.879,-2.188 4.879,-4.878 0,-2.69 -2.189,-4.879 -4.879,-4.879 -2.69,0 -4.878,2.189 -4.878,4.879 M 5.604,9.198 C 5.408,9.483 5.079,9.653 4.731,9.63 L -1.147,9.335 c -1.338,-0.067 -2.54,-1.409 -4.357,-3.44 -2.961,-3.308 -7.015,-7.835 -12.954,-8.022 -5.19,15.525 -15.8,25.025 -29.646,26.304 2.155,1.163 3.623,3.441 3.623,6.057 0,3.793 -3.086,6.878 -6.879,6.878 -3.793,0 -6.878,-3.085 -6.878,-6.878 0,-2.617 1.469,-4.896 3.626,-6.058 -11.025,-1.009 -20.218,-7.145 -25.926,-16.743 -0.105,0.148 -0.236,0.281 -0.417,0.356 -5.492,2.295 -10.547,1.838 -14.238,-1.289 -4.045,-3.426 -5.755,-9.491 -4.357,-15.451 1.629,-6.946 6.979,-12.025 14.678,-13.943 0.945,-2.252 2.262,-4.342 3.944,-6.233 6.159,-6.925 17.213,-11.059 29.568,-11.059 12.884,0 24.653,4.533 30.712,11.83 1.439,1.732 2.552,3.616 3.346,5.615 0.031,0.002 0.059,0.003 0.089,0.007 10.47,1.567 12.984,7.537 19.056,21.958 1.121,2.662 2.39,5.677 3.853,9.005 0.14,0.317 0.106,0.684 -0.092,0.969"
         id="path238"
         style="fill:#62544d;fill-opacity:1;fill-rule:nonzero;stroke:none" /></g><g
       transform="translate(-231.93037,293.12823)"
       id="g346"><path
         d="M 0,0 C 0.329,1.845 0.922,5.169 0.388,8.828 0.761,8.942 1.122,9 1.467,9 3.204,9 4.222,7.524 4.46,6.062 4.787,4.052 3.85,1.262 0.051,-0.009 0.032,-0.016 0.014,-0.021 -0.005,-0.028 -0.004,-0.019 -0.002,-0.01 0,0 m -1.237,-2.149 c 0.163,-0.024 0.321,-0.034 0.473,-0.034 0.642,0 1.157,0.177 1.528,0.304 4.595,1.536 6.159,5.257 5.67,8.263 C 5.992,9.102 3.949,11 1.467,11 0.614,11 -0.27,10.787 -1.159,10.366 -1.572,10.171 -1.801,9.722 -1.715,9.273 -1.022,5.659 -1.639,2.206 -1.969,0.352 c -0.219,-1.226 -0.292,-1.639 0.03,-2.081 0.16,-0.22 0.432,-0.384 0.702,-0.42"
         id="path348"
         style="fill:#62544d;fill-opacity:1;fill-rule:nonzero;stroke:none" /></g><g
       transform="translate(-223.52307,245.44563)"
       id="g350"><path
         d="m 0,0 c 0,-6.216 -5.012,-11.273 -11.171,-11.273 l -12.174,0 c -6.159,0 -11.171,5.057 -11.171,11.273 l 0,34.363 c 0,4.899 3.908,9.595 9.089,10.925 1.175,0.303 0.94,1.484 0.614,3.119 -0.588,2.946 -1.796,8.996 1.973,14.292 l 10.193,0 c 0.687,-0.886 1.254,-1.865 1.691,-2.918 0.166,-0.4 0.576,-0.646 1.004,-0.614 l 0.448,0.036 c 0.061,0.005 0.12,0.016 0.179,0.031 1.093,0.292 2.11,0.441 3.025,0.441 4.447,0 5.247,-3.442 5.385,-4.921 0.36,-3.876 -2.148,-8.741 -6.321,-9.524 -0.489,-0.09 -0.836,-0.528 -0.815,-1.025 0.022,-0.497 0.405,-0.902 0.9,-0.952 0.289,-0.028 7.072,-0.8 7.151,-8.89 L 0,0 z m -4.017,44.362 c 3.53,2.147 5.454,6.689 5.093,10.577 -0.386,4.155 -3.212,6.736 -7.376,6.736 -0.97,0 -2.021,-0.136 -3.131,-0.404 -0.53,1.108 -1.19,2.137 -1.971,3.07 -0.19,0.227 -0.471,0.358 -0.767,0.358 l -11.176,0 c -0.311,0 -0.605,-0.145 -0.794,-0.392 -4.669,-6.106 -3.296,-12.986 -2.636,-16.291 0.067,-0.335 0.139,-0.697 0.186,-0.978 -5.791,-1.783 -9.927,-7.012 -9.927,-12.675 l 0,-34.363 c 0,-7.319 5.909,-13.273 13.171,-13.273 l 12.174,0 C -3.908,-13.273 2,-7.319 2,0 l 0,34.373 c -0.06,6.099 -3.43,8.808 -6.017,9.989"
         id="path352"
         style="fill:#62544d;fill-opacity:1;fill-rule:nonzero;stroke:none" /></g><g
       transform="translate(-244.86487,310.77763)"
       id="g354"><path
         d="m 0,0 7.478,0 c 2.062,0 3.741,2.235 3.741,5.022 0,2.787 -1.679,5.021 -3.741,5.021 l -7.478,0 c -2.061,0 -3.74,-2.234 -3.74,-5.021 C -3.74,2.235 -2.061,0 0,0"
         id="path356"
         style="fill:#62544d;fill-opacity:1;fill-rule:nonzero;stroke:none" /></g><g
       transform="translate(-235.43717,263.55793)"
       id="g358"><path
         d="m 0,0 c -0.932,-0.698 -0.945,-1.585 -0.777,-2.117 l -3.962,0.475 c -0.039,0.005 -0.079,0.007 -0.119,0.007 -0.346,0 -0.606,-0.089 -0.796,-0.204 -0.217,0.149 -0.555,0.291 -0.984,0.24 l -3.96,-0.474 c 0.167,0.532 0.157,1.413 -0.746,2.091 l -4.267,3.489 c 0.209,0.118 0.387,0.298 0.507,0.516 0.229,0.418 0.236,0.925 0.022,1.509 l -0.482,1.788 1.48,-0.309 c 0.13,-0.043 0.327,-0.091 0.558,-0.091 0.592,0 1.081,0.321 1.313,0.813 l 1.453,-1.642 c 0.025,-0.029 0.052,-0.056 0.079,-0.08 0.169,-0.153 0.623,-0.507 1.189,-0.507 0.138,0 1.354,0.047 1.354,1.685 0,0.062 -0.006,0.123 -0.016,0.183 l -0.773,4.158 c 0.167,-0.078 0.41,-0.16 0.7,-0.16 0.3,0 1.042,0.1 1.457,0.984 l 1.07,2.021 1.071,-2.022 c 0.438,-0.927 1.18,-1.028 1.48,-1.028 0.289,0 0.532,0.082 0.698,0.16 L -3.223,7.328 c -0.01,-0.06 -0.016,-0.121 -0.016,-0.182 0,-0.444 0.085,-0.795 0.26,-1.074 0.243,-0.388 0.642,-0.612 1.095,-0.612 0.565,0 1.019,0.353 1.188,0.506 0.028,0.025 0.054,0.053 0.08,0.081 L 0.841,7.695 C 1.084,7.187 1.566,6.876 2.15,6.877 c 0.231,0 0.429,0.048 0.558,0.091 L 4.188,7.276 3.707,5.489 C 3.492,4.905 3.499,4.397 3.729,3.979 3.849,3.761 4.027,3.581 4.235,3.463 L 0,0 z M 6.524,4.603 5.649,5.011 6.542,8.327 c 0.09,0.335 0,0.694 -0.238,0.946 C 6.064,9.525 5.718,9.64 5.372,9.565 L 2.538,8.976 2.262,9.986 C 2.164,10.34 1.881,10.612 1.523,10.695 1.163,10.779 0.789,10.659 0.548,10.384 l -1.479,-1.667 0.81,4.36 c 0.068,0.371 -0.077,0.75 -0.378,0.979 -0.302,0.228 -0.706,0.269 -1.044,0.102 l -1.415,-0.69 -1.771,3.346 c -0.098,0.335 -0.367,0.602 -0.718,0.69 -0.444,0.108 -0.911,-0.097 -1.125,-0.503 l -1.847,-3.489 -1.416,0.689 c -0.339,0.165 -0.743,0.126 -1.043,-0.103 -0.301,-0.229 -0.446,-0.608 -0.378,-0.979 l 0.811,-4.365 -1.481,1.674 c -0.244,0.275 -0.617,0.395 -0.975,0.311 -0.359,-0.083 -0.642,-0.356 -0.739,-0.711 l -0.274,-1.009 -2.836,0.59 C -17.096,9.685 -17.442,9.569 -17.682,9.317 -17.92,9.064 -18.01,8.706 -17.92,8.37 l 0.895,-3.315 -0.874,-0.408 c -0.313,-0.144 -0.528,-0.44 -0.571,-0.782 -0.043,-0.341 0.093,-0.68 0.36,-0.898 l 5.533,-4.524 c 0.012,-0.008 0.022,-0.017 0.031,-0.024 l -0.392,-1.393 c -0.092,-0.321 -0.016,-0.667 0.202,-0.921 0.215,-0.253 0.544,-0.383 0.879,-0.343 l 4.695,0.562 -0.268,-5.107 c -0.028,-0.549 0.392,-1.019 0.942,-1.05 l 0.449,-0.026 c 0.111,-0.042 0.229,-0.064 0.351,-0.064 0.02,0 0.04,10e-4 0.06,0.002 l 0.743,0.045 c 0.548,0.033 0.967,0.502 0.939,1.051 l -0.269,5.106 4.695,-0.564 c 0.338,-0.039 0.662,0.089 0.879,0.343 0.217,0.253 0.293,0.599 0.203,0.92 L 1.17,-1.625 c 0.016,0.014 0.036,0.03 0.062,0.05 L 6.734,2.922 C 7.001,3.14 7.137,3.479 7.094,3.82 7.051,4.161 6.836,4.457 6.524,4.603"
         id="path360"
         style="fill:#62544d;fill-opacity:1;fill-rule:nonzero;stroke:none" /></g><g
       transform="matrix(4.9165919,0,0,4.9165919,327.6113,309.02175)"
       id="g392"><path
         d="m 0,0 -0.97,0 c -0.012,0 -0.023,0.008 -0.036,0.008 l -45.987,0 C -47.005,0.008 -47.016,0 -47.028,0 l -0.971,0 0,5.744 4.793,0 c 0.553,0 1,0.447 1,1 l 0,8.298 36.166,-2.771 0,-5.527 c 0,-0.553 0.448,-1 1,-1 L 0,5.744 0,0 z m -9.672,-58.177 -27.245,0 L -45.821,-2 -2.15,-2 -9.672,-58.177 z M 1,7.744 l -5.04,0 0,5.454 c 0,0.523 -0.402,0.957 -0.923,0.997 l -38.166,2.923 c -0.277,0.022 -0.552,-0.074 -0.756,-0.264 -0.204,-0.189 -0.321,-0.455 -0.321,-0.733 l 0,-8.377 -4.793,0 c -0.552,0 -1,-0.447 -1,-1 l 0,-7.744 c 0,-0.553 0.448,-1 1,-1 l 1.153,0 9.087,-57.333 c 0.077,-0.486 0.496,-0.844 0.988,-0.844 l 28.974,0 c 0.501,0 0.924,0.371 0.991,0.867 L -0.132,-2 1,-2 c 0.552,0 1,0.447 1,1 l 0,7.744 c 0,0.553 -0.448,1 -1,1"
         id="path394"
         style="fill:#62544d;fill-opacity:1;fill-rule:nonzero;stroke:none" /></g><path
       d="m -88.770667,365.31033 -49.782003,0 0,67.923 49.782003,0 0,-67.923 z m 2.698,74.296 -55.179003,0 0,-6.227 0.698,0 0,-69.069 c 0,-0.553 0.448,-1 1,-1 l 51.783003,0 c 0.552,0 1,0.447 1,1 l 0,69.069 0.698,0 0,6.227 z"
       id="path396"
       style="fill:#62544d;fill-opacity:1;fill-rule:nonzero;stroke:none" /><g
       transform="translate(-121.15887,393.41733)"
       id="g398"><path
         d="m 0,0 -0.312,1.616 c -0.409,-0.163 -1.1,-0.299 -1.725,-0.299 -1.848,0 -2.934,1.155 -2.934,2.989 0,2.036 1.278,3.028 2.92,3.028 0.735,0 1.317,-0.163 1.739,-0.34 l 0.421,1.644 c -0.367,0.189 -1.181,0.407 -2.255,0.407 -2.77,0 -4.997,-1.738 -4.997,-4.862 0,-2.608 1.629,-4.577 4.793,-4.577 1.114,0 1.969,0.205 2.35,0.394"
         id="path400"
         style="fill:#62544d;fill-opacity:1;fill-rule:nonzero;stroke:none" /></g><g
       transform="translate(-117.71937,396.98953)"
       id="g402"><path
         d="m 0,0 3.408,0 0,-3.83 2.065,0 0,9.153 -2.065,0 0,-3.517 -3.408,0 0,3.517 -2.078,0 0,-9.153 L 0,-3.83 0,0 z"
         id="path404"
         style="fill:#62544d;fill-opacity:1;fill-rule:nonzero;stroke:none" /></g><g
       transform="translate(-107.46157,398.99933)"
       id="g406"><path
         d="m 0,0 c 0.148,0.529 0.285,1.222 0.42,1.765 l 0.027,0 C 0.584,1.222 0.746,0.543 0.91,0 l 0.57,-1.942 -2.023,0 L 0,0 z m -0.842,-3.49 2.621,0 0.705,-2.35 2.229,0 -2.84,9.153 -2.715,0 -2.799,-9.153 2.147,0 0.652,2.35 z"
         id="path408"
         style="fill:#62544d;fill-opacity:1;fill-rule:nonzero;stroke:none" /></g><path
       d="m -99.445667,402.31233 -2.076003,0 0,-9.153 2.076003,0 0,9.153 z"
       id="path410"
       style="fill:#62544d;fill-opacity:1;fill-rule:nonzero;stroke:none" /><g
       transform="translate(-113.66177,414.26303)"
       id="g412"><path
         d="m 0,0 c 10.296,0 18.673,-7.679 18.673,-17.116 0,-9.439 -8.377,-17.117 -18.673,-17.117 -10.296,0 -18.673,7.678 -18.673,17.117 C -18.673,-7.679 -10.296,0 0,0 m 0,-36.233 c 11.399,0 20.673,8.576 20.673,19.117 C 20.673,-6.575 11.399,2 0,2 c -11.399,0 -20.673,-8.575 -20.673,-19.116 0,-10.541 9.274,-19.117 20.673,-19.117"
         id="path414"
         style="fill:#62544d;fill-opacity:1;fill-rule:nonzero;stroke:none" /></g><g
       transform="translate(-625.56607,121.26593)"
       id="g416"><path
         d="m 0,0 c 5.962,-0.375 12.24,1.104 14.703,7.152 1.969,4.838 0.035,10.475 -4.326,12.59 C 6.892,21.436 2.788,19.668 1.21,15.797 -0.05,12.7 1.188,9.092 3.978,7.74 6.209,6.653 8.838,7.786 9.845,10.265"
         id="path418"
         style="fill:none;stroke:#62544d;stroke-width:2;stroke-linecap:round;stroke-linejoin:round;stroke-miterlimit:10;stroke-opacity:1;stroke-dasharray:none" /></g><g
       transform="translate(-625.87567,121.28253)"
       id="g420"><path
         d="m 0,0 c -5.963,0.376 -12.007,2.625 -13.695,8.936 -1.35,5.044 1.277,10.396 5.863,11.951 3.671,1.244 7.522,-1.021 8.604,-5.06 0.864,-3.229 -0.815,-6.655 -3.752,-7.65 -2.351,-0.796 -4.816,0.655 -5.506,3.237"
         id="path422"
         style="fill:none;stroke:#62544d;stroke-width:2;stroke-linecap:round;stroke-linejoin:round;stroke-miterlimit:10;stroke-opacity:1;stroke-dasharray:none" /></g><g
       transform="translate(-612.91617,139.30893)"
       id="g424"><path
         d="m 0,0 -21.377,22.259 c 0,0 -4.98,5.762 -7.041,1.042"
         id="path426"
         style="fill:none;stroke:#62544d;stroke-width:2;stroke-linecap:round;stroke-linejoin:round;stroke-miterlimit:10;stroke-opacity:1;stroke-dasharray:none" /></g><g
       transform="translate(-639.88837,130.47983)"
       id="g428"><path
         d="m 0,0 -10.998,30.536 c -0.198,-1.678 -0.085,6.166 8.317,2.994"
         id="path430"
         style="fill:none;stroke:#62544d;stroke-width:2;stroke-linecap:round;stroke-linejoin:round;stroke-miterlimit:10;stroke-opacity:1;stroke-dasharray:none" /></g><g
       transform="translate(-624.06997,137.80303)"
       id="g432"><path
         d="M 0,0 -18.499,26.207"
         id="path434"
         style="fill:none;stroke:#62544d;stroke-width:2;stroke-linecap:round;stroke-linejoin:round;stroke-miterlimit:10;stroke-opacity:1;stroke-dasharray:none" /></g><g
       transform="translate(-611.78927,128.79523)"
       id="g436"><path
         d="m 0,0 c -2.427,-5.958 -8.797,-6.845 -13.714,-6.531 -0.055,0.002 -0.104,-0.018 -0.157,-0.025 -0.052,0.012 -0.098,0.038 -0.152,0.041 -4.919,0.311 -11.13,1.984 -12.792,8.197 -1.215,4.538 1.126,9.358 5.217,10.745 1.418,0.481 2.926,0.354 4.247,-0.352 1.479,-0.792 2.599,-2.257 3.071,-4.019 0.729,-2.726 -0.665,-5.618 -3.107,-6.445 -0.813,-0.273 -1.678,-0.202 -2.434,0.203 -0.859,0.459 -1.51,1.315 -1.786,2.346 -0.143,0.533 -0.693,0.852 -1.224,0.707 -0.534,-0.142 -0.851,-0.69 -0.708,-1.224 0.418,-1.563 1.429,-2.872 2.774,-3.592 1.251,-0.671 2.68,-0.789 4.019,-0.334 1.445,0.489 2.626,1.483 3.44,2.746 0.649,-1.354 1.698,-2.486 3.069,-3.151 1.273,-0.618 2.702,-0.681 4.028,-0.175 1.426,0.546 2.594,1.72 3.204,3.221 0.208,0.512 -0.038,1.096 -0.55,1.304 C -4.066,3.869 -4.65,3.623 -4.858,3.112 -5.261,2.121 -6.014,1.354 -6.924,1.005 -7.727,0.697 -8.592,0.735 -9.363,1.111 c -2.32,1.123 -3.342,4.165 -2.277,6.78 0.688,1.69 1.982,3.004 3.55,3.604 1.398,0.536 2.91,0.472 4.254,-0.182 0.529,-0.256 1.014,-0.577 1.459,-0.941 L -1.848,9.821 C -1.789,9.759 -1.714,9.725 -1.644,9.681 0.624,7.266 1.39,3.414 0,0 m -36.506,34.448 c 1.192,0.733 2.909,0.704 5.095,-0.073 l 14.25,-20.187 c -1.623,0.65 -3.398,0.703 -5.078,0.133 -3.375,-1.143 -5.787,-4.143 -6.593,-7.651 l -9.23,25.626 c 0.153,0.535 0.56,1.54 1.556,2.152 m 9.104,0.21 c 1.247,0.187 3.202,-1.458 4.177,-2.578 L -5.704,13.836 c -1.039,0.066 -2.091,-0.087 -3.102,-0.474 -1.359,-0.52 -2.554,-1.439 -3.472,-2.623 L -28.486,33.7 c 0.453,0.853 0.92,0.934 1.084,0.958 M -44.019,7.68 c 4.982,-2.044 7.519,-8.215 5.657,-13.756 -2.541,-7.563 -10.325,-9.15 -16.408,-9.15 -0.066,0 -0.124,-0.025 -0.188,-0.038 -0.062,0.013 -0.121,0.038 -0.187,0.038 -6.083,0 -13.868,1.587 -16.409,9.15 -1.458,4.34 -0.208,9.056 2.792,11.885 0.095,0.043 0.189,0.092 0.27,0.167 l 0.66,0.609 c 0.596,0.435 1.24,0.809 1.937,1.095 1.743,0.715 3.65,0.677 5.369,-0.109 1.917,-0.875 3.434,-2.621 4.163,-4.788 1.133,-3.371 -0.399,-7.119 -3.416,-8.355 -1.026,-0.42 -2.144,-0.398 -3.152,0.063 -1.137,0.519 -2.038,1.559 -2.471,2.852 -0.176,0.523 -0.74,0.803 -1.267,0.63 -0.523,-0.176 -0.805,-0.744 -0.63,-1.267 0.61,-1.815 1.899,-3.286 3.536,-4.034 1.518,-0.693 3.201,-0.727 4.742,-0.095 1.804,0.739 3.203,2.148 4.063,3.868 0.861,-1.72 2.26,-3.129 4.062,-3.867 1.54,-0.633 3.224,-0.6 4.741,0.093 1.638,0.748 2.928,2.219 3.539,4.035 0.176,0.523 -0.106,1.09 -0.629,1.267 -0.525,0.173 -1.091,-0.107 -1.267,-0.63 -0.435,-1.294 -1.337,-2.334 -2.474,-2.853 -1.008,-0.461 -2.127,-0.483 -3.15,-0.061 -3.017,1.235 -4.549,4.983 -3.415,8.354 0.728,2.167 2.244,3.912 4.16,4.788 1.72,0.787 3.627,0.824 5.372,0.109 m 43.068,4.093 -20.796,21.654 c -0.322,0.372 -3.23,3.624 -5.954,3.209 -0.593,-0.09 -1.349,-0.391 -2.015,-1.194 l -0.247,0.35 c -0.019,0.027 -0.048,0.041 -0.07,0.065 -0.043,0.051 -0.09,0.095 -0.144,0.136 -0.054,0.042 -0.109,0.077 -0.169,0.107 -0.029,0.014 -0.05,0.039 -0.081,0.05 -4.709,1.779 -7.177,0.371 -8.416,-1.121 -0.762,-0.919 -1.611,-2.809 -1.151,-3.565 0.052,-0.086 0.116,-0.162 0.188,-0.227 l 1.484,-4.12 c -0.107,-0.06 -0.207,-0.138 -0.29,-0.24 L -55.597,5.756 c -1.02,1.596 -2.432,2.874 -4.098,3.635 -1.363,0.622 -2.816,0.879 -4.257,0.774 l 22.868,21.101 c 0.405,0.375 0.431,1.007 0.056,1.413 -0.373,0.406 -1.006,0.43 -1.413,0.057 L -69.18,8.063 c -4.219,-3.212 -6.122,-9.262 -4.269,-14.776 2.277,-6.779 8.778,-10.513 18.304,-10.513 0.066,0 0.125,0.026 0.187,0.039 0.064,-0.013 0.122,-0.039 0.188,-0.039 9.526,0 16.026,3.734 18.303,10.513 0.056,0.166 0.094,0.334 0.143,0.502 0.013,-10e-4 0.026,-0.007 0.039,-0.007 0.298,0 0.593,0.133 0.79,0.386 l 5.639,7.25 c 0.339,0.436 0.26,1.064 -0.176,1.403 -0.434,0.342 -1.064,0.261 -1.403,-0.175 l -4.336,-5.574 c 0.222,5.344 -2.686,10.488 -7.489,12.457 -2.207,0.907 -4.611,0.873 -6.794,-0.073 l 12.496,15.54 8.518,-23.65 c 0.076,-0.211 0.217,-0.378 0.391,-0.492 1.639,-5.552 6.768,-8.877 14.5,-9.365 0.021,-0.001 0.043,-0.002 0.064,-0.002 0.039,0 0.073,0.017 0.111,0.022 0.046,-0.01 0.086,-0.033 0.134,-0.036 0.603,-0.038 1.192,-0.057 1.768,-0.057 6.942,0 11.853,2.743 13.925,7.83 1.83,4.496 0.552,9.637 -2.804,12.527"
         id="path438"
         style="fill:#62544d;fill-opacity:1;fill-rule:nonzero;stroke:none" /></g><g
       transform="translate(-616.79407,109.54333)"
       id="g440"><path
         d="m 0,0 c -2.04,0 -3.7,1.659 -3.7,3.698 0,2.039 1.66,3.698 3.7,3.698 2.039,0 3.698,-1.659 3.698,-3.698 C 3.698,1.659 2.039,0 0,0 m -5.564,2.477 c 0.109,-0.5 0.285,-0.976 0.517,-1.418 L -9.712,0.948 -5.564,2.477 z M 0,9.396 c -2.857,0 -5.223,-2.115 -5.631,-4.859 -0.074,-0.01 -0.147,-0.008 -0.22,-0.034 l -10.202,-3.76 c -0.012,-0.004 -0.019,-0.014 -0.03,-0.018 -0.069,-0.029 -0.125,-0.073 -0.185,-0.114 -0.047,-0.033 -0.1,-0.059 -0.14,-0.1 -0.046,-0.045 -0.075,-0.101 -0.112,-0.155 -0.036,-0.053 -0.077,-0.101 -0.102,-0.16 -0.023,-0.051 -0.027,-0.109 -0.041,-0.166 -0.017,-0.071 -0.037,-0.14 -0.038,-0.216 0,-0.011 -0.007,-0.021 -0.006,-0.033 0.001,-0.057 0.025,-0.107 0.036,-0.162 0.01,-0.054 0.005,-0.107 0.025,-0.16 0.004,-0.012 0.014,-0.021 0.019,-0.033 0.013,-0.033 0.034,-0.061 0.051,-0.092 0.04,-0.074 0.085,-0.143 0.141,-0.202 0.026,-0.029 0.054,-0.054 0.083,-0.079 0.062,-0.053 0.128,-0.096 0.2,-0.131 0.033,-0.018 0.064,-0.035 0.099,-0.049 0.11,-0.041 0.224,-0.068 0.344,-0.068 l 10e-4,0 0.024,0 11.277,0.268 c 0.275,0.007 0.521,0.124 0.698,0.308 C -2.711,-1.478 -1.417,-2 0,-2 3.142,-2 5.698,0.557 5.698,3.698 5.698,6.84 3.142,9.396 0,9.396"
         id="path442"
         style="fill:#62544d;fill-opacity:1;fill-rule:nonzero;stroke:none" /></g><g
       transform="translate(-650.22527,104.29233)"
       id="g444"><path
         d="m 0,0 c -0.099,0.164 -0.197,0.329 -0.321,0.479 -0.156,0.19 -0.336,0.353 -0.52,0.507 L 2.919,2.769 0,0 z m -1.445,-2.176 c -0.049,-0.502 -0.291,-0.955 -0.681,-1.276 -0.785,-0.644 -2.021,-0.519 -2.663,0.261 -0.32,0.389 -0.469,0.88 -0.42,1.383 0.049,0.503 0.292,0.956 0.682,1.278 0.342,0.281 0.757,0.429 1.199,0.429 0.569,0 1.101,-0.251 1.462,-0.689 0.321,-0.391 0.47,-0.883 0.421,-1.386 M 7.838,7.314 -3.164,2.098 C -3.273,2.046 -3.363,1.971 -3.443,1.89 -4.299,1.863 -5.132,1.561 -5.796,1.015 -6.6,0.355 -7.098,-0.578 -7.199,-1.612 c -0.102,-1.034 0.205,-2.046 0.865,-2.85 0.743,-0.902 1.84,-1.42 3.009,-1.42 0.897,0 1.774,0.314 2.468,0.885 0.803,0.659 1.302,1.593 1.403,2.627 0.004,0.044 -0.003,0.086 0,0.13 L 8.538,5.343 C 8.58,5.383 8.6,5.434 8.633,5.479 L 8.695,5.508 C 9.194,5.744 9.407,6.341 9.17,6.84 8.934,7.338 8.337,7.55 7.838,7.314"
         id="path446"
         style="fill:#62544d;fill-opacity:1;fill-rule:nonzero;stroke:none" /></g><g
       transform="translate(-524.51917,148.46223)"
       id="g448"><path
         d="m 0,0 c 0,-2.399 -1.946,-4.347 -4.347,-4.347 -2.4,0 -4.346,1.948 -4.346,4.347 0,2.4 1.946,4.347 4.346,4.347 C -1.946,4.347 0,2.4 0,0"
         id="path450"
         style="fill:#62544d;fill-opacity:1;fill-rule:nonzero;stroke:none" /></g><g
       transform="translate(-524.51917,133.52183)"
       id="g452"><path
         d="m 0,0 c 0,-2.401 -1.946,-4.347 -4.347,-4.347 -2.4,0 -4.346,1.946 -4.346,4.347 0,2.4 1.946,4.346 4.346,4.346 C -1.946,4.346 0,2.4 0,0"
         id="path454"
         style="fill:#62544d;fill-opacity:1;fill-rule:nonzero;stroke:none" /></g><g
       transform="translate(-512.83857,127.27373)"
       id="g456"><path
         d="m 0,0 c 0,-2.401 -1.946,-4.348 -4.346,-4.348 -2.4,0 -4.346,1.947 -4.346,4.348 0,2.399 1.946,4.346 4.346,4.346 C -1.946,4.346 0,2.399 0,0"
         id="path458"
         style="fill:#62544d;fill-opacity:1;fill-rule:nonzero;stroke:none" /></g><g
       transform="translate(-506.86097,112.60283)"
       id="g460"><path
         d="m 0,0 c 0,-2.4 -1.946,-4.345 -4.347,-4.345 -2.4,0 -4.346,1.945 -4.346,4.345 0,2.401 1.946,4.348 4.346,4.348 C -1.946,4.348 0,2.401 0,0"
         id="path462"
         style="fill:#62544d;fill-opacity:1;fill-rule:nonzero;stroke:none" /></g><g
       transform="translate(-522.07437,117.49253)"
       id="g464"><path
         d="m 0,0 c 0,-2.4 -1.946,-4.347 -4.346,-4.347 -2.402,0 -4.347,1.947 -4.347,4.347 0,2.401 1.945,4.347 4.347,4.347 C -1.946,4.347 0,2.401 0,0"
         id="path466"
         style="fill:#62544d;fill-opacity:1;fill-rule:nonzero;stroke:none" /></g><g
       transform="translate(-502.51527,124.82843)"
       id="g468"><path
         d="m 0,0 c 0,-2.401 -1.947,-4.347 -4.347,-4.347 -2.4,0 -4.346,1.946 -4.346,4.347 0,2.4 1.946,4.347 4.346,4.347 C -1.947,4.347 0,2.4 0,0"
         id="path470"
         style="fill:#62544d;fill-opacity:1;fill-rule:nonzero;stroke:none" /></g><g
       transform="translate(-493.27847,115.86363)"
       id="g472"><path
         d="m 0,0 c 0,-2.4 -1.947,-4.347 -4.347,-4.347 -2.401,0 -4.346,1.947 -4.346,4.347 0,2.4 1.945,4.347 4.346,4.347 C -1.947,4.347 0,2.4 0,0"
         id="path474"
         style="fill:#62544d;fill-opacity:1;fill-rule:nonzero;stroke:none" /></g><g
       transform="translate(-513.38197,139.76983)"
       id="g476"><path
         d="m 0,0 c 0,-2.401 -1.946,-4.348 -4.345,-4.348 -2.401,0 -4.347,1.947 -4.347,4.348 0,2.399 1.946,4.345 4.347,4.345 C -1.946,4.345 0,2.399 0,0"
         id="path478"
         style="fill:#62544d;fill-opacity:1;fill-rule:nonzero;stroke:none" /></g><g
       transform="translate(-497.89617,141.12723)"
       id="g480"><path
         d="m 0,0 c 0,-2.4 -1.946,-4.347 -4.346,-4.347 -2.401,0 -4.347,1.947 -4.347,4.347 0,2.401 1.946,4.347 4.347,4.347 C -1.946,4.347 0,2.401 0,0"
         id="path482"
         style="fill:#62544d;fill-opacity:1;fill-rule:nonzero;stroke:none" /></g><g
       transform="translate(-487.30147,146.28843)"
       id="g484"><path
         d="m 0,0 c 0,-2.399 -1.946,-4.345 -4.346,-4.345 -2.4,0 -4.347,1.946 -4.347,4.345 0,2.401 1.947,4.347 4.347,4.347 C -1.946,4.347 0,2.401 0,0"
         id="path486"
         style="fill:#62544d;fill-opacity:1;fill-rule:nonzero;stroke:none" /></g><g
       transform="translate(-494.90837,157.70053)"
       id="g488"><path
         d="m 0,0 c 0,-2.402 -1.945,-4.347 -4.346,-4.347 -2.4,0 -4.346,1.945 -4.346,4.347 0,2.4 1.946,4.346 4.346,4.346 C -1.945,4.346 0,2.4 0,0"
         id="path490"
         style="fill:#62544d;fill-opacity:1;fill-rule:nonzero;stroke:none" /></g><g
       transform="translate(-492.73457,132.16243)"
       id="g492"><path
         d="m 0,0 c 0,-2.4 -1.945,-4.347 -4.346,-4.347 -2.4,0 -4.346,1.947 -4.346,4.347 0,2.401 1.946,4.347 4.346,4.347 C -1.945,4.347 0,2.401 0,0"
         id="path494"
         style="fill:#62544d;fill-opacity:1;fill-rule:nonzero;stroke:none" /></g><g
       transform="translate(-483.76877,127.00133)"
       id="g496"><path
         d="m 0,0 c 0,-2.401 -1.946,-4.347 -4.347,-4.347 -2.399,0 -4.345,1.946 -4.345,4.347 0,2.4 1.946,4.347 4.345,4.347 C -1.946,4.347 0,2.4 0,0"
         id="path498"
         style="fill:#62544d;fill-opacity:1;fill-rule:nonzero;stroke:none" /></g><g
       transform="translate(-508.49137,150.09313)"
       id="g500"><path
         d="m 0,0 c 0,-2.401 -1.945,-4.347 -4.347,-4.347 -2.399,0 -4.345,1.946 -4.345,4.347 0,2.399 1.946,4.345 4.345,4.345 C -1.945,4.345 0,2.399 0,0"
         id="path502"
         style="fill:#62544d;fill-opacity:1;fill-rule:nonzero;stroke:none" /></g><g
       transform="translate(-515.28337,160.41633)"
       id="g504"><path
         d="m 0,0 c 0,-2.401 -1.946,-4.348 -4.347,-4.348 -2.399,0 -4.345,1.947 -4.345,4.348 0,2.399 1.946,4.346 4.345,4.346 C -1.946,4.346 0,2.399 0,0"
         id="path506"
         style="fill:#62544d;fill-opacity:1;fill-rule:nonzero;stroke:none" /></g><g
       transform="translate(-103.71937,234.17223)"
       id="g520"><path
         d="m 0,0 -21.053,0 c -8.885,0 -9.218,12.031 -9.228,12.525 l 0,9.399 40.664,0 c 0.001,-3.097 0.004,-4.51 0.007,-5.736 l 0.004,-3.663 C 10.394,8.193 8.222,0 0,0 m -30.28,23.924 c 0.007,7.752 0.009,12.788 0.009,16.22 l 40.664,0 c -0.007,-7.752 -0.01,-12.789 -0.01,-16.22 l -40.663,0 z m 7.278,39.677 26.193,0 c 0.23,0 0.443,0.016 0.647,0.041 6.278,-2.132 6.547,-11.662 6.556,-12.1 l 0,-9.398 -40.665,0 c 0,3.097 -0.003,4.51 -0.006,5.736 l -0.004,3.662 c 0,3.723 1.615,10.28 7.279,12.059 m -2.049,5.849 c 0,3.292 0.609,3.848 1.972,3.848 l 0.133,0 0,-7.591 c -0.136,-0.032 -0.276,-0.06 -0.408,-0.097 -1.169,0.083 -1.697,0.778 -1.697,3.84 m 8.204,-3.381 -3.041,0 c -0.37,0 -0.709,-0.039 -1.058,-0.065 l 0,7.294 4.099,0 0,-7.229 z m 6.098,0 -4.098,0 0,7.229 4.098,0 0,-7.229 z m 6.1,0 -4.1,0 0,7.229 4.1,0 0,-7.229 z M 1.447,66.05 c -0.096,0.003 -0.183,0.019 -0.282,0.019 l -3.814,0 0,7.229 4.096,0 0,-7.248 z m 3.716,3.4 c 0,-2.611 -0.384,-3.499 -1.222,-3.756 -0.159,0.044 -0.33,0.072 -0.494,0.109 l 0,7.487 c 1.184,-0.076 1.716,-0.762 1.716,-3.84 m 0.898,-4.654 c 1.094,1.319 1.102,3.419 1.102,4.654 0,1.899 0,5.848 -3.972,5.848 l -26.27,0 c -3.972,0 -3.972,-3.949 -3.972,-5.848 0,-1.298 0.002,-3.554 1.272,-4.852 -5.002,-2.862 -6.502,-9.244 -6.502,-13.056 l 0.004,-3.666 c 0.003,-1.345 0.006,-2.913 0.006,-6.681 0,-0.018 -0.01,-0.033 -0.01,-0.051 l 0,-28.636 C -32.193,7.49 -29.733,-2 -21.053,-2 L 0,-2 c 9.804,0 12.394,9.501 12.394,14.525 l -0.004,3.667 c -0.003,1.345 -0.006,2.913 -0.007,6.68 0.001,0.019 0.011,0.033 0.011,0.052 l 0,28.636 c -0.069,3.902 -1.587,10.49 -6.333,13.236"
         id="path522"
         style="fill:#62544d;fill-opacity:1;fill-rule:nonzero;stroke:none" /></g><g
       transform="translate(-121.81027,264.13213)"
       id="g524"><path
         d="m 0,0 c -1.339,-0.378 -2.117,-1.765 -1.74,-3.102 0.376,-1.336 1.764,-2.114 3.101,-1.739 1.336,0.379 2.115,1.766 1.738,3.101 C 2.722,-0.403 1.334,0.375 0,0"
         id="path526"
         style="fill:#62544d;fill-opacity:1;fill-rule:nonzero;stroke:none" /></g><g
       transform="translate(-128.06607,267.72693)"
       id="g528"><path
         d="M 0,0 C -1.337,-0.376 -2.116,-1.766 -1.738,-3.1 -1.361,-4.437 0.025,-5.215 1.363,-4.838 2.699,-4.462 3.478,-3.072 3.1,-1.736 2.724,-0.399 1.336,0.375 0,0"
         id="path530"
         style="fill:#62544d;fill-opacity:1;fill-rule:nonzero;stroke:none" /></g><g
       transform="translate(-101.06507,266.08623)"
       id="g532"><path
         d="m 0,0 c -0.986,-0.963 -2.365,-1.83 -3.354,-2.108 -0.719,-0.201 -1.463,-0.153 -2.154,0.142 -0.431,0.183 -0.937,0.043 -1.208,-0.342 -0.428,-0.602 -1.053,-1.043 -1.761,-1.242 -1.99,-0.56 -5.38,0.256 -5.796,1.731 -0.045,0.159 -0.054,0.336 -0.029,0.54 l 0,0.002 c 0.127,1.021 1.211,2.369 2.637,3.28 l 10e-4,0 c 0.505,0.322 1.001,0.557 1.433,0.68 0.717,0.204 1.46,0.154 2.151,-0.142 0.43,-0.185 0.938,-0.044 1.211,0.343 0.429,0.608 1.038,1.038 1.758,1.242 C -2.987,4.723 0.964,3.957 1.352,2.582 1.523,1.972 1.006,0.982 0,0 m -17.744,0.932 c -0.187,0.302 -0.513,0.476 -0.853,0.476 -0.111,0 -0.223,-0.018 -0.333,-0.056 -0.443,-0.157 -0.927,-0.158 -1.373,10e-4 -1.353,0.481 -2.82,2.269 -2.53,3.086 0.197,0.557 1.343,0.993 2.607,0.993 0.496,0 0.958,-0.068 1.306,-0.192 0.447,-0.157 0.816,-0.455 1.065,-0.861 0.246,-0.402 0.743,-0.578 1.183,-0.422 0.446,0.155 0.932,0.157 1.376,0 0.412,-0.146 1.004,-0.503 1.568,-0.988 -0.977,-0.808 -1.891,-1.871 -2.325,-3.052 -0.239,0.038 -0.452,0.088 -0.623,0.148 -0.449,0.16 -0.818,0.459 -1.068,0.867 M 3.276,3.124 C 2.441,6.086 -3.017,6.792 -5.654,6.051 -6.558,5.795 -7.375,5.3 -8.017,4.628 -8.919,4.868 -9.878,4.861 -10.776,4.606 -11.168,4.495 -11.587,4.31 -12.01,4.093 c -0.807,0.79 -1.772,1.449 -2.619,1.75 -0.637,0.224 -1.317,0.284 -1.975,0.184 -0.449,0.496 -1.017,0.876 -1.65,1.099 -0.561,0.199 -1.243,0.306 -1.972,0.306 -1.692,0 -3.884,-0.61 -4.492,-2.325 -0.787,-2.219 1.691,-4.909 3.745,-5.639 0.637,-0.226 1.324,-0.29 1.978,-0.187 0.449,-0.495 1.017,-0.876 1.651,-1.1 0.355,-0.126 0.736,-0.205 1.097,-0.256 0.018,-0.096 0.022,-0.196 0.049,-0.287 0.642,-2.282 3.635,-3.37 6.228,-3.369 0.731,0 1.429,0.085 2.034,0.255 0.902,0.254 1.72,0.749 2.365,1.422 0.903,-0.236 1.859,-0.233 2.758,0.021 1.319,0.371 2.971,1.392 4.209,2.601 1.6,1.563 2.268,3.18 1.88,4.556"
         id="path534"
         style="fill:#62544d;fill-opacity:1;fill-rule:nonzero;stroke:none" /></g><g
       transform="translate(-111.60907,267.87723)"
       id="g536"><path
         d="m 0,0 c -1.336,-0.377 -2.114,-1.766 -1.736,-3.1 0.376,-1.338 1.763,-2.114 3.099,-1.739 1.337,0.377 2.114,1.765 1.739,3.1 C 2.726,-0.402 1.337,0.375 0,0"
         id="path538"
         style="fill:#62544d;fill-opacity:1;fill-rule:nonzero;stroke:none" /></g><g
       transform="translate(-105.15597,269.69373)"
       id="g540"><path
         d="m 0,0 c -1.34,-0.375 -2.117,-1.765 -1.741,-3.102 0.375,-1.335 1.765,-2.114 3.101,-1.736 1.337,0.375 2.113,1.765 1.739,3.101 C 2.722,-0.401 1.334,0.376 0,0"
         id="path542"
         style="fill:#62544d;fill-opacity:1;fill-rule:nonzero;stroke:none" /></g><g
       transform="translate(-242.68917,568.34993)"
       id="g696"><path
         d="m 0,0 c 17.52,0 26.312,-2.231 26.312,-3.48 0,-1.249 -8.792,-3.481 -26.312,-3.481 -17.519,0 -26.311,2.232 -26.311,3.481 0,1.249 8.792,3.48 26.311,3.48 m 0,-8.961 c 8.513,0 28.312,0.534 28.312,5.481 C 28.312,1.466 8.513,2 0,2 -8.512,2 -28.311,1.466 -28.311,-3.48 -28.311,-8.427 -8.512,-8.961 0,-8.961"
         id="path698"
         style="fill:#62544d;fill-opacity:1;fill-rule:nonzero;stroke:none" /></g><g
       transform="translate(-242.68917,573.26983)"
       id="g700"><path
         d="m 0,0 c 20.511,0 34.805,-4.427 34.805,-8.4 0,-0.169 -0.03,-0.34 -0.088,-0.514 0,-10e-4 0,-10e-4 -10e-4,-0.002 -0.409,-1.218 -2.225,-2.539 -5.121,-3.699 -0.072,-0.03 -0.137,-0.069 -0.199,-0.112 -5.958,-2.304 -16.432,-4.074 -29.396,-4.074 -12.956,0 -23.426,1.767 -29.384,4.07 -0.063,0.044 -0.131,0.085 -0.204,0.114 -2.899,1.161 -4.718,2.483 -5.127,3.701 -10e-4,0 -10e-4,0.001 -10e-4,0.001 -0.058,0.174 -0.088,0.346 -0.088,0.515 0,3.973 14.293,8.4 34.804,8.4 M 42.104,-52.808 C 28.83,-65.848 19.509,-45.579 6.538,-56.595 l -0.594,-0.761 c 0.096,-0.619 0.255,-1.213 0.443,-1.797 -1.635,-0.115 -3.517,-0.175 -5.695,-0.175 -14.986,0 -15.822,4.032 -15.827,4.032 -0.006,0.143 -0.043,0.283 -0.107,0.411 -5.142,10.119 -11.197,28.176 -13.418,39.795 7.181,-2.436 18.115,-3.711 28.66,-3.711 10.556,0 21.502,1.277 28.684,3.718 -1.168,-6.428 -3.179,-14.022 -5.519,-21.055 -0.874,-0.021 -1.755,-0.076 -2.649,-0.203 -9.653,-1.402 -16.749,-8.562 -16.054,-16.27 15.812,12.506 24.155,-8.722 35.647,3.782 l 0.511,0.761 c -1.019,6.606 -7.471,11.338 -15.363,11.885 2.43,7.396 4.491,15.352 5.605,21.926 0.43,0.183 0.833,0.372 1.222,0.565 0.124,0.061 0.242,0.123 0.361,0.185 0.256,0.134 0.501,0.271 0.738,0.409 0.119,0.07 0.244,0.139 0.358,0.209 0.281,0.177 0.546,0.358 0.794,0.541 0.138,0.102 0.261,0.204 0.387,0.308 0.126,0.103 0.248,0.208 0.363,0.313 0.119,0.109 0.236,0.218 0.343,0.329 0.12,0.124 0.226,0.252 0.331,0.378 0.121,0.147 0.233,0.295 0.333,0.445 0.098,0.148 0.192,0.297 0.27,0.448 0.049,0.094 0.089,0.189 0.129,0.284 0.066,0.154 0.119,0.308 0.164,0.464 0.023,0.083 0.049,0.165 0.066,0.248 0.05,0.239 0.084,0.483 0.084,0.731 C 36.805,-1.646 17.842,2 0,2 -17.842,2 -36.804,-1.646 -36.804,-8.4 c 0,-0.249 0.033,-0.492 0.084,-0.732 0.017,-0.083 0.043,-0.163 0.066,-0.245 0.045,-0.158 0.099,-0.314 0.165,-0.469 0.04,-0.093 0.08,-0.187 0.127,-0.28 0.081,-0.156 0.177,-0.31 0.28,-0.462 0.094,-0.14 0.198,-0.278 0.311,-0.416 0.11,-0.135 0.222,-0.268 0.349,-0.399 0.103,-0.107 0.216,-0.212 0.33,-0.317 0.123,-0.112 0.253,-0.223 0.388,-0.333 0.119,-0.097 0.234,-0.194 0.363,-0.29 0.254,-0.188 0.525,-0.372 0.814,-0.553 0.101,-0.063 0.214,-0.125 0.321,-0.188 0.252,-0.148 0.515,-0.294 0.789,-0.437 0.105,-0.055 0.211,-0.11 0.319,-0.164 0.397,-0.197 0.808,-0.389 1.245,-0.576 2.042,-11.651 8.382,-30.751 13.753,-41.385 0.247,-1.246 2.219,-5.682 17.792,-5.682 2.48,0 4.627,0.076 6.518,0.229 3.029,-5.714 10.599,-9.143 18.84,-7.978 9.654,1.395 16.749,8.563 16.054,16.269"
         id="path702"
         style="fill:#62544d;fill-opacity:1;fill-rule:nonzero;stroke:none" /></g><g
       transform="translate(-107.70967,529.84993)"
       id="g704"><path
         d="M 0,0 C -0.005,-0.041 -0.008,-0.083 -0.008,-0.125 L 0,-20.418 c 0,-2.705 -1.344,-7.82 -6.43,-7.82 l -13.727,0 c -5.45,0 -5.666,7.519 -5.672,7.82 l 0,32.056 c 0.005,0.038 0.007,0.077 0.007,0.117 l -0.007,17.794 c 0,1.627 0.494,4.121 1.988,5.855 0.784,-1.435 1.793,-2.603 2.973,-2.603 l 15.907,0 c 1.222,0 2.261,1.258 3.057,2.765 1.796,-2.246 1.9,-5.811 1.904,-6.017 L 0,0 z m -3.492,36.86 c -0.583,-1.176 -1.176,-1.962 -1.49,-2.059 l -15.854,-0.003 c -0.297,0.079 -0.854,0.793 -1.417,1.888 0.787,0.422 1.724,0.685 2.855,0.685 l 13.727,0 c 0.853,0 1.564,-0.199 2.179,-0.511 m -20.114,3.606 c -0.085,0.384 -0.386,0.682 -0.77,0.763 -0.317,0.068 -0.548,0.351 -0.548,0.675 0,0.379 0.308,0.688 0.724,0.688 0.055,0.004 0.089,0.009 0.149,0.02 l 22.221,0 c 0.069,-0.014 0.196,-0.018 0.268,-0.018 0.38,0 0.69,-0.31 0.69,-0.69 0,-0.33 -0.235,-0.613 -0.56,-0.675 -0.393,-0.074 -0.705,-0.375 -0.792,-0.766 -0.134,-0.61 -0.308,-1.185 -0.496,-1.732 -0.841,0.403 -1.817,0.64 -2.951,0.64 l -13.727,0 c -1.44,0 -2.639,-0.312 -3.653,-0.816 -0.212,0.597 -0.406,1.234 -0.555,1.911 m 22.577,-2.93 c 0.268,0.718 0.478,1.4 0.623,1.942 0.918,0.436 1.534,1.371 1.534,2.426 0,1.449 -1.151,2.633 -2.64,2.684 -0.07,0.013 -0.161,0.024 -0.266,0.024 l -22.273,0 c -0.076,0 -0.149,-0.007 -0.225,-0.018 -1.464,-0.024 -2.648,-1.221 -2.648,-2.69 0,-1.033 0.601,-1.962 1.496,-2.409 0.155,-0.583 0.387,-1.328 0.685,-2.108 -2.336,-2.172 -3.086,-5.636 -3.086,-7.838 l 0.007,-17.677 c -0.005,-0.038 -0.007,-0.077 -0.007,-0.117 l 0,-32.191 c 0.059,-3.39 1.74,-9.802 7.672,-9.802 l 13.727,0 c 6.668,0 8.43,6.424 8.43,9.82 L 1.992,-0.25 C 1.997,-0.209 2,-0.167 2,-0.125 l 0,29.691 c -0.039,2.248 -0.8,5.815 -3.029,7.97"
         id="path706"
         style="fill:#62544d;fill-opacity:1;fill-rule:nonzero;stroke:none" /></g><g
       transform="translate(-76.977167,509.43193)"
       id="g708"><path
         d="m 0,0 c 0,-2.705 -1.344,-7.82 -6.43,-7.82 l -13.726,0 c -5.452,0 -5.666,7.518 -5.672,7.82 l 0,16.557 c 0,2.705 1.344,7.821 6.429,7.821 l 13.729,0 c 5.449,0 5.664,-7.52 5.67,-7.821 L 0,0 z m -21.356,30.613 16.883,0 c 0.53,0 0.911,0 0.911,-2.115 0,-2.116 -0.381,-2.116 -0.911,-2.116 l -16.883,0 c -0.529,0 -0.911,0 -0.911,2.116 0,2.115 0.382,2.115 0.911,2.115 m 19.144,-5.159 c 0.646,0.95 0.65,2.299 0.65,3.044 0,1.231 0,4.115 -2.911,4.115 l -16.883,0 c -2.911,0 -2.911,-2.884 -2.911,-4.115 0,-0.78 0.003,-2.222 0.743,-3.175 -3.312,-1.965 -4.304,-6.218 -4.304,-8.766 l 0,-16.575 c 0.059,-3.39 1.738,-9.802 7.672,-9.802 l 13.726,0 C 0.238,-9.82 2,-3.396 2,0 l 0,16.574 c -0.046,2.606 -1.058,6.987 -4.212,8.88"
         id="path710"
         style="fill:#62544d;fill-opacity:1;fill-rule:nonzero;stroke:none" /></g><path
       d="m -100.03767,504.15433 6.165003,0 0,6.164 -6.165003,0 0,-6.164 z"
       id="path712"
       style="fill:#62544d;fill-opacity:1;fill-rule:nonzero;stroke:none" /><path
       d="m -92.679667,504.15433 6.165,0 0,6.164 -6.165,0 0,-6.164 z"
       id="path714"
       style="fill:#62544d;fill-opacity:1;fill-rule:nonzero;stroke:none" /><path
       d="m -90.292667,517.27933 -6.166,0 0,-6.165 6.166,0 0,6.165 z"
       id="path716"
       style="fill:#62544d;fill-opacity:1;fill-rule:nonzero;stroke:none" /><path
       d="m -89.099667,511.11433 6.164,0 0,6.165 -6.164,0 0,-6.165 z"
       id="path718"
       style="fill:#62544d;fill-opacity:1;fill-rule:nonzero;stroke:none" /><path
       d="m -86.613667,524.24033 -6.165,0 0,-6.165 6.165,0 0,6.165 z"
       id="path720"
       style="fill:#62544d;fill-opacity:1;fill-rule:nonzero;stroke:none" /><path
       d="m -85.420667,504.15433 6.165,0 0,6.164 -6.165,0 0,-6.164 z"
       id="path722"
       style="fill:#62544d;fill-opacity:1;fill-rule:nonzero;stroke:none" /><g
       transform="translate(-122.55627,520.96223)"
       id="g724"><path
         d="M 0,0 0.237,0.104 C 1.149,2.17 -0.19,4.783 -2.77,5.957 -5.282,7.091 -8.064,6.465 -9.071,4.521 -3.4,5.097 -4.641,-1.231 0,0"
         id="path726"
         style="fill:#62544d;fill-opacity:1;fill-rule:nonzero;stroke:none" /></g><g
       transform="translate(-122.68617,519.71123)"
       id="g728"><path
         d="M 0,0 C -5.147,-1.089 -4.285,5.159 -9.054,4.508 L -9.31,4.417 C -10.22,2.352 -8.879,-0.262 -6.302,-1.436 -3.788,-2.571 -1.006,-1.943 0,0"
         id="path730"
         style="fill:#62544d;fill-opacity:1;fill-rule:nonzero;stroke:none" /></g><g
       transform="translate(-116.13637,512.39383)"
       id="g732"><path
         d="m 0,0 c -1.007,1.943 -3.789,2.569 -6.302,1.436 -2.579,-1.174 -3.919,-3.788 -3.007,-5.854 l 0.238,-0.103 C -4.431,-5.753 -5.671,0.575 0,0"
         id="path734"
         style="fill:#62544d;fill-opacity:1;fill-rule:nonzero;stroke:none" /></g><g
       transform="translate(-116.02407,511.12923)"
       id="g736"><path
         d="m 0,0 c -4.769,0.651 -3.906,-5.597 -9.054,-4.508 1.006,-1.943 3.788,-2.571 6.302,-1.435 2.577,1.173 3.918,3.787 3.008,5.852 L 0,0 z"
         id="path738"
         style="fill:#62544d;fill-opacity:1;fill-rule:nonzero;stroke:none" /></g><g
       transform="translate(-123.07297,530.58133)"
       id="g740"><path
         d="m 0,0 c 1.607,-1.486 4.437,-1.131 6.415,0.789 2.028,1.98 2.401,4.893 0.842,6.526 L 6.998,7.332 C 2.215,6.915 5.53,1.384 0,0"
         id="path742"
         style="fill:#62544d;fill-opacity:1;fill-rule:nonzero;stroke:none" /></g><g
       transform="translate(-123.60707,531.73273)"
       id="g744"><path
         d="M 0,0 C 4.706,1.006 1.774,6.591 6.985,7.313 5.38,8.8 2.55,8.446 0.571,6.525 -1.455,4.546 -1.829,1.633 -0.271,-0.001 L 0,0 z"
         id="path746"
         style="fill:#62544d;fill-opacity:1;fill-rule:nonzero;stroke:none" /></g><g
       transform="translate(-117.52117,525.85383)"
       id="g748"><path
         d="m 0,0 c -2.021,-0.842 -2.875,-3.562 -1.955,-6.16 0.956,-2.668 3.448,-4.221 5.583,-3.484 l 0.123,0.228 C 5.364,-4.894 -1.045,-5.604 0,0"
         id="path750"
         style="fill:#62544d;fill-opacity:1;fill-rule:nonzero;stroke:none" /></g><g
       transform="translate(-116.13937,526.10773)"
       id="g752"><path
         d="m 0,0 -0.112,-0.247 c -1.046,-4.698 5.253,-4.358 3.739,-9.398 2.02,0.841 2.878,3.561 1.955,6.161 C 4.627,-0.818 2.134,0.735 0,0"
         id="path754"
         style="fill:#62544d;fill-opacity:1;fill-rule:nonzero;stroke:none" /></g><g
       transform="translate(-388.75847,292.27863)"
       id="g756"><path
         d="m 0,0 -0.921,1.852 c -5.806,-1.454 -9.211,-3.939 -9.211,-5.855 0,-2.878 7.66,-7.059 19.664,-7.059 12.003,0 19.663,4.181 19.663,7.059 0,2 -3.702,4.624 -9.982,6.043 L 18.288,0.18 c 5.692,-1.219 8.72,-3.367 8.91,-4.146 C 26.927,-5.153 20.89,-9.062 9.532,-9.062 -1.827,-9.062 -7.864,-5.153 -8.135,-4.04 -7.954,-3.247 -5.189,-1.245 0,0"
         id="path758"
         style="fill:#62544d;fill-opacity:1;fill-rule:nonzero;stroke:none" /></g><g
       transform="translate(-372.88737,294.92023)"
       id="g760"><path
         d="m 0,0 c -1.942,0.264 -4.062,0.415 -6.339,0.415 -2.601,0 -4.984,-0.205 -7.143,-0.542 l 0.938,-1.885 c 1.853,0.263 3.915,0.427 6.205,0.427 1.96,0 3.751,-0.122 5.392,-0.321 L 0,0 z"
         id="path762"
         style="fill:#62544d;fill-opacity:1;fill-rule:nonzero;stroke:none" /></g><g
       transform="translate(-387.24137,296.54523)"
       id="g764"><path
         d="m 0,0 c 2.492,0.429 5.2,0.669 8.015,0.669 2.515,0 4.946,-0.19 7.213,-0.537 L 16.143,1.97 C 16.13,1.988 16.121,2.009 16.108,2.028 13.595,2.443 10.872,2.669 8.015,2.669 4.83,2.669 1.813,2.387 -0.934,1.876 L 0,0 z"
         id="path766"
         style="fill:#62544d;fill-opacity:1;fill-rule:nonzero;stroke:none" /></g><g
       transform="translate(-368.42157,249.51013)"
       id="g768"><path
         d="m 0,0 2.374,-7.387 c -1.837,0.552 -4.298,0.922 -7.381,1.108 -0.917,0.718 -2.413,1.142 -3.942,1.327 -0.434,1.271 -1.083,2.661 -1.115,2.73 -0.165,0.351 -0.517,0.576 -0.905,0.576 -0.388,0 -0.741,-0.225 -0.906,-0.576 -0.032,-0.069 -0.686,-1.47 -1.121,-2.747 -1.502,-0.195 -2.97,-0.628 -3.863,-1.347 -2.581,-0.197 -5.36,-0.577 -7.501,-1.292 L -21.916,0 c 0.06,0.185 0.045,0.368 0.001,0.544 3.17,-0.689 6.827,-1.035 11.014,-1.035 4.081,0 7.717,0.35 10.902,1.042 C -0.045,0.373 -0.06,0.187 0,0 m -15.689,-7.926 c 0.211,0.218 0.929,0.625 2.3,0.876 0.005,-0.061 0.019,-0.118 0.027,-0.179 0.01,-0.082 0.021,-0.162 0.036,-0.242 0.021,-0.105 0.048,-0.207 0.077,-0.307 0.022,-0.076 0.042,-0.15 0.068,-0.221 0.037,-0.1 0.081,-0.192 0.126,-0.285 0.031,-0.064 0.059,-0.13 0.094,-0.191 0.053,-0.092 0.115,-0.177 0.177,-0.262 0.037,-0.05 0.07,-0.104 0.109,-0.151 0.007,-0.008 0.012,-0.018 0.019,-0.026 -1.743,0.209 -2.764,0.699 -3.033,0.988 m 9.524,0.023 c 0.008,-0.008 0.014,-0.017 0.021,-0.026 -0.28,-0.297 -1.34,-0.8 -3.153,-1 0.009,0.011 0.015,0.024 0.024,0.034 0.046,0.054 0.085,0.115 0.126,0.172 0.057,0.079 0.114,0.157 0.164,0.243 0.038,0.066 0.069,0.137 0.103,0.208 0.043,0.088 0.085,0.176 0.12,0.271 0.028,0.075 0.049,0.154 0.072,0.232 0.028,0.099 0.055,0.198 0.075,0.3 0.016,0.084 0.026,0.169 0.037,0.255 0.007,0.064 0.022,0.122 0.027,0.187 1.4,-0.243 2.144,-0.647 2.384,-0.876 m -5.234,1.133 c 0,0.029 0.006,0.192 0.123,0.609 l 0,10e-4 c 0.08,0.286 0.188,0.606 0.306,0.928 0.117,-0.319 0.224,-0.634 0.304,-0.919 0,-0.001 0.001,-0.001 0.001,-0.002 0.119,-0.422 0.124,-0.587 0.124,-0.617 0,-0.625 -0.32,-0.953 -0.431,-0.953 -0.11,0 -0.427,0.328 -0.427,0.953 m 0.485,-4.244 c 1.72,0 3.503,0.269 4.817,0.826 l 0,-0.275 c -0.225,-0.351 -1.868,-1.148 -4.817,-1.148 -2.947,0 -4.591,0.796 -4.818,1.148 l 0,0.275 c 1.314,-0.557 3.098,-0.826 4.818,-0.826 m -14.727,-0.475 c 0.033,0.058 0.071,0.113 0.092,0.179 l 0.384,1.199 c 1.107,0.609 3.403,1.326 7.433,1.714 l 0,-2.52 c 0,-0.368 0.199,-0.69 0.496,-0.863 1.144,-1.343 4.039,-1.831 6.322,-1.831 2.284,0 5.178,0.488 6.322,1.831 0.296,0.174 0.495,0.495 0.495,0.863 l 0,2.573 c 3.876,-0.304 6.067,-0.901 7.249,-1.467 l 0.482,-1.499 c 0.043,-0.134 0.118,-0.246 0.206,-0.345 -1.682,-1.417 -7.143,-3.683 -14.645,-3.683 -7.805,0 -13.406,2.453 -14.836,3.849 m 41.917,32.587 c -0.459,6.939 -1.687,11.99 -3.855,15.832 0.21,0.606 0.316,1.221 0.316,1.836 0,3.96 -4.312,7.363 -10.919,9.279 C 1.351,47.758 0.813,47.583 0.243,47.555 L -0.272,46.52 c 6.512,-1.559 11.009,-4.485 11.009,-7.754 0,-0.499 -0.113,-1.009 -0.338,-1.515 -0.131,-0.297 -0.111,-0.639 0.056,-0.918 2.155,-3.611 3.371,-8.494 3.825,-15.368 0.364,-5.486 -0.94,-9.858 -3.873,-12.99 -4.016,-4.29 -11.185,-6.466 -21.308,-6.466 -9.939,0 -16.695,1.947 -20.653,5.952 -3.114,3.151 -4.594,7.587 -4.523,13.559 0.078,6.617 1.352,11.687 3.894,15.501 0.181,0.271 0.218,0.613 0.1,0.917 -0.177,0.456 -0.264,0.89 -0.264,1.328 0,3.139 4.146,5.963 10.241,7.561 l -0.611,1.228 c -0.453,0.022 -0.887,0.133 -1.28,0.322 -6.285,-1.943 -10.35,-5.266 -10.35,-9.111 0,-0.515 0.077,-1.036 0.229,-1.553 -2.582,-4.09 -3.879,-9.387 -3.959,-16.17 -0.077,-6.443 1.639,-11.485 5.1,-14.988 2.297,-2.325 5.401,-4.012 9.355,-5.093 -0.086,-0.1 -0.155,-0.217 -0.198,-0.351 l -3.042,-9.468 c -0.716,-0.567 -1.144,-1.247 -1.144,-2.067 0,-3.237 8.52,-6.414 17.201,-6.414 8.68,0 17.199,3.177 17.199,6.414 0,0.974 -0.533,1.8 -1.58,2.479 L 1.904,0.611 C 1.86,0.748 1.789,0.866 1.7,0.967 c 4.342,1.175 7.747,3.056 10.167,5.641 3.326,3.553 4.81,8.428 4.409,14.49"
         id="path770"
         style="fill:#62544d;fill-opacity:1;fill-rule:nonzero;stroke:none" /></g><g
       transform="translate(-374.57727,290.39973)"
       id="g772"><path
         d="M 0,0 2.023,-1.005 6.089,7.164 C 7.176,7.109 8.245,7.69 8.76,8.727 l 4.75,9.546 c 0.695,1.401 0.126,3.097 -1.272,3.793 -1.399,0.697 -3.095,0.126 -3.792,-1.271 L 3.698,11.245 C 3.182,10.206 3.364,9.007 4.063,8.169 L 0,0 z"
         id="path774"
         style="fill:#62544d;fill-opacity:1;fill-rule:nonzero;stroke:none" /></g><g
       transform="translate(-393.50257,299.12633)"
       id="g776"><path
         d="m 0,0 c 0.514,-1.036 1.584,-1.617 2.674,-1.562 l 4.062,-8.169 2.025,1.004 -4.065,8.169 C 5.397,0.28 5.581,1.479 5.064,2.519 l -4.751,9.549 c -0.694,1.398 -2.392,1.968 -3.79,1.272 -1.399,-0.696 -1.969,-2.393 -1.272,-3.793 L 0,0 z"
         id="path778"
         style="fill:#62544d;fill-opacity:1;fill-rule:nonzero;stroke:none" /></g></g></svg>