<?xml version='1.0' encoding='iso-8859-1'?>
<svg version="1.1" xmlns="http://www.w3.org/2000/svg" viewBox="0 0 295.82 295.82" xmlns:xlink="http://www.w3.org/1999/xlink" enable-background="new 0 0 295.82 295.82">
  <g>
    <path d="m207.944,165.311c15.661-15.661 22.621-40.023 20.882-62.644l-8.701-93.966c0-5.22-3.48-8.701-8.701-8.701h-127.028c-5.22,0-8.701,3.48-8.701,8.701l-8.701,93.966c-1.74,22.621 5.22,45.243 20.882,62.644 13.642,15.156 32.61,24.57 52.204,26.868v86.24h-36.543c-5.22,0-8.701,3.48-8.701,8.701s3.48,8.701 8.701,8.701h92.226c3.48,0 8.701-3.48 8.701-8.701s-3.48-8.701-8.701-8.701h-38.283v-85.875c19.246-2.627 36.839-13.608 50.464-27.233zm-3.48-147.91l7.657,76.565h-125.985c-0.261,0-0.452,0.105-0.713,0.122l7.674-76.687 111.367,0zm-120.068,93.653c0.592,0.105 1.096,0.313 1.74,0.313h127.029c0,16.357-4.994,31.305-15.661,43.503-12.181,13.921-29.582,20.882-48.723,20.882-19.141,0-36.543-6.96-48.723-20.882-10.651-12.18-15.662-28.294-15.662-43.816z" fill="#FECE00"  />
  </g>
</svg>
